<svg id="svg" version="1.1" xmlns="http://www.w3.org/2000/svg" xmlns:xlink="http://www.w3.org/1999/xlink" width="400" height="400" viewBox="0, 0, 400,400"><g id="svgg"><path id="path0" d="M178.125 46.854 C 166.113 49.407,157.144 57.456,152.468 69.879 C 151.233 73.158,151.420 73.609,153.888 73.317 C 157.258 72.918,160.067 70.473,164.067 64.453 C 170.911 54.153,180.743 46.875,187.812 46.875 C 188.260 46.875,188.734 46.699,188.867 46.484 C 189.274 45.826,181.741 46.086,178.125 46.854 M256.666 69.021 C 255.675 69.154,255.471 69.293,255.885 69.555 C 256.351 69.850,256.336 69.911,255.794 69.916 C 255.436 69.919,255.077 69.723,254.996 69.479 C 254.906 69.210,254.508 69.145,253.981 69.312 C 253.504 69.464,253.199 69.725,253.303 69.894 C 253.407 70.062,253.014 70.123,252.430 70.030 C 251.598 69.897,251.494 69.951,251.953 70.276 C 252.542 70.693,252.063 70.867,250.488 70.808 C 250.220 70.798,250.000 70.935,250.000 71.111 C 250.000 71.288,249.601 71.360,249.113 71.272 C 248.134 71.094,245.703 72.388,245.703 73.087 C 245.703 73.334,245.365 73.440,244.936 73.328 C 244.489 73.211,243.960 73.396,243.667 73.771 C 243.209 74.357,243.233 74.363,243.945 73.835 C 244.719 73.261,244.719 73.264,243.982 74.128 C 243.220 75.021,242.732 75.309,243.164 74.609 C 243.297 74.395,243.230 74.219,243.015 74.219 C 242.580 74.219,242.007 74.986,241.998 75.581 C 241.995 75.792,241.641 76.029,241.211 76.107 C 240.781 76.184,240.254 76.432,240.039 76.658 C 239.773 76.937,239.805 76.980,240.137 76.792 C 240.405 76.640,240.625 76.608,240.625 76.721 C 240.625 76.834,240.252 77.125,239.797 77.369 C 239.128 77.727,239.024 77.711,239.257 77.285 C 239.415 76.995,239.089 77.264,238.531 77.883 C 237.973 78.502,237.583 79.117,237.663 79.250 C 237.743 79.383,237.530 79.750,237.189 80.065 C 236.638 80.575,236.601 80.559,236.849 79.912 C 237.087 79.292,237.039 79.260,236.523 79.688 C 236.191 79.964,236.003 80.274,236.107 80.378 C 236.210 80.481,235.911 80.877,235.442 81.256 C 234.973 81.636,234.585 82.361,234.580 82.868 C 234.574 83.393,234.360 83.747,234.082 83.691 C 233.813 83.638,233.594 83.927,233.594 84.333 C 233.594 84.740,233.312 85.181,232.967 85.313 C 232.598 85.455,232.436 85.801,232.572 86.156 C 232.706 86.505,232.639 86.658,232.413 86.518 C 232.198 86.385,231.911 86.830,231.776 87.508 C 231.640 88.185,231.276 88.836,230.966 88.955 C 230.589 89.100,230.545 89.259,230.831 89.436 C 231.370 89.769,230.601 92.182,229.757 92.810 C 229.398 93.077,229.256 93.622,229.379 94.263 C 229.486 94.827,229.424 95.196,229.240 95.082 C 229.057 94.969,228.894 95.106,228.878 95.387 C 228.863 95.668,228.782 96.514,228.697 97.266 C 228.344 100.416,228.253 101.951,228.411 102.109 C 228.503 102.201,228.631 103.478,228.696 104.947 C 228.812 107.586,230.039 112.473,231.106 114.547 C 231.409 115.135,231.610 115.663,231.552 115.719 C 231.495 115.775,231.843 116.375,232.326 117.052 C 232.808 117.730,233.203 118.450,233.203 118.652 C 233.203 119.223,234.600 120.348,234.916 120.032 C 235.071 119.877,235.091 120.028,234.961 120.367 C 234.702 121.043,236.487 123.441,237.242 123.432 C 237.498 123.428,237.440 123.261,237.109 123.047 C 236.787 122.839,236.704 122.666,236.925 122.662 C 237.146 122.659,237.651 123.035,238.047 123.498 C 238.736 124.302,238.736 124.327,238.058 124.067 C 237.381 123.807,237.382 123.832,238.071 124.593 C 238.879 125.486,239.261 125.645,238.815 124.902 C 238.621 124.579,238.749 124.598,239.192 124.958 C 239.561 125.257,239.770 125.594,239.657 125.708 C 239.401 125.964,240.618 127.344,241.099 127.344 C 241.293 127.344,241.327 127.141,241.174 126.893 C 241.000 126.611,241.067 126.548,241.352 126.724 C 241.604 126.880,241.712 127.164,241.594 127.357 C 241.415 127.646,244.279 129.813,244.922 129.876 C 245.029 129.886,245.349 130.042,245.631 130.221 C 245.914 130.400,246.245 130.448,246.366 130.326 C 246.725 129.968,248.091 130.863,247.830 131.285 C 247.681 131.526,247.979 131.575,248.615 131.415 C 249.329 131.236,249.606 131.304,249.527 131.639 C 249.194 133.061,264.146 134.925,267.188 133.841 C 267.510 133.726,268.526 133.440,269.445 133.204 C 270.576 132.915,271.026 132.624,270.835 132.306 C 270.620 131.947,270.686 131.942,271.116 132.285 C 271.551 132.632,272.080 132.553,273.438 131.936 C 277.577 130.058,278.600 129.478,278.958 128.810 C 279.166 128.421,279.501 128.205,279.702 128.329 C 279.903 128.453,281.318 127.272,282.846 125.703 C 284.375 124.135,285.799 122.901,286.011 122.960 C 286.222 123.020,286.488 122.715,286.601 122.281 C 286.715 121.848,286.963 121.589,287.154 121.707 C 287.344 121.825,287.500 121.669,287.500 121.360 C 287.500 121.051,287.753 120.589,288.063 120.332 C 288.372 120.075,288.532 119.622,288.418 119.325 C 288.304 119.028,288.670 118.326,289.230 117.766 C 289.791 117.205,290.149 116.584,290.026 116.386 C 289.904 116.187,290.078 116.130,290.414 116.259 C 290.874 116.436,290.959 116.322,290.758 115.800 C 290.557 115.274,290.626 115.184,291.047 115.428 C 291.352 115.605,291.476 115.611,291.322 115.441 C 291.169 115.271,291.230 114.782,291.459 114.355 C 291.782 113.751,291.764 113.646,291.379 113.884 C 291.023 114.104,290.957 113.998,291.145 113.509 C 291.288 113.134,291.406 112.743,291.406 112.640 C 291.406 112.538,291.609 112.579,291.857 112.733 C 292.147 112.912,292.202 112.839,292.010 112.529 C 291.540 111.768,292.580 108.599,293.312 108.563 C 293.717 108.543,293.769 108.461,293.457 108.335 C 293.188 108.227,292.969 107.791,292.969 107.366 C 292.969 106.942,293.101 106.676,293.262 106.776 C 293.577 106.972,293.189 96.023,292.834 94.727 C 292.717 94.297,292.436 93.331,292.209 92.581 C 291.683 90.839,291.690 90.513,292.248 90.858 C 292.530 91.032,292.593 90.965,292.416 90.679 C 292.261 90.427,291.970 90.323,291.770 90.446 C 291.570 90.570,291.406 90.499,291.406 90.289 C 291.406 90.079,291.288 89.601,291.145 89.226 C 290.950 88.719,291.025 88.618,291.438 88.832 C 291.743 88.991,291.667 88.855,291.269 88.532 C 290.848 88.188,290.670 87.744,290.842 87.466 C 291.043 87.139,290.973 87.089,290.619 87.308 C 290.240 87.543,290.171 87.449,290.359 86.958 C 290.532 86.506,290.468 86.379,290.164 86.567 C 289.859 86.756,289.795 86.628,289.968 86.177 C 290.110 85.808,290.069 85.603,289.878 85.721 C 289.686 85.840,289.167 85.321,288.723 84.570 C 287.874 83.131,288.005 82.726,288.943 83.887 C 289.442 84.504,289.455 84.485,289.070 83.691 C 288.836 83.208,288.406 82.813,288.114 82.813 C 287.672 82.813,287.106 82.059,286.942 81.250 C 286.828 80.691,286.235 80.090,285.963 80.258 C 285.791 80.364,285.320 80.073,284.915 79.611 C 284.435 79.063,284.383 78.883,284.766 79.092 C 285.088 79.268,285.000 79.060,284.570 78.629 C 284.141 78.199,283.388 77.374,282.899 76.798 C 282.409 76.221,281.827 75.862,281.605 75.999 C 281.129 76.293,279.617 75.039,279.898 74.584 C 280.004 74.413,279.885 74.146,279.634 73.990 C 279.348 73.814,279.281 73.877,279.455 74.158 C 279.862 74.818,279.255 74.705,278.024 73.894 C 277.432 73.503,277.075 73.055,277.231 72.899 C 277.387 72.743,277.184 72.742,276.779 72.897 C 276.271 73.092,276.130 73.040,276.323 72.727 C 276.506 72.431,276.393 72.355,275.997 72.507 C 275.633 72.647,275.389 72.528,275.388 72.210 C 275.384 71.534,273.440 70.558,273.432 71.228 C 273.428 71.515,273.321 71.537,273.139 71.289 C 272.981 71.074,272.324 70.842,271.680 70.773 C 271.035 70.705,270.453 70.495,270.385 70.307 C 270.317 70.119,270.014 70.061,269.711 70.177 C 269.408 70.293,268.878 70.106,268.533 69.761 C 268.188 69.415,267.436 69.128,266.863 69.121 C 266.289 69.114,264.063 69.049,261.914 68.975 C 259.766 68.902,257.404 68.922,256.666 69.021 M218.645 90.894 C 203.458 110.599,176.121 115.079,154.840 101.351 L 151.605 99.264 151.750 100.410 C 152.016 102.507,157.339 108.932,158.313 108.331 C 158.534 108.194,158.600 108.268,158.460 108.494 C 158.159 108.981,160.829 111.442,161.325 111.135 C 161.512 111.019,161.792 111.131,161.947 111.382 C 162.124 111.668,162.061 111.735,161.779 111.561 C 161.531 111.407,161.328 111.364,161.328 111.463 C 161.328 112.424,172.181 117.403,173.515 117.054 C 173.903 116.953,174.125 117.024,174.008 117.212 C 173.773 117.593,174.583 117.838,177.649 118.316 C 178.783 118.492,179.804 118.487,179.918 118.303 C 180.031 118.119,181.882 117.969,184.030 117.969 C 186.884 117.969,187.862 118.090,187.658 118.420 C 187.467 118.729,187.552 118.763,187.928 118.527 C 188.230 118.338,188.803 118.237,189.203 118.303 C 189.697 118.385,189.834 118.268,189.630 117.940 C 189.406 117.577,189.644 117.519,190.584 117.707 C 191.366 117.863,191.747 117.813,191.598 117.572 C 191.467 117.361,191.766 117.168,192.262 117.144 C 195.673 116.979,199.214 115.942,199.225 115.104 C 199.228 114.843,199.393 114.899,199.609 115.234 C 199.862 115.625,199.990 115.658,199.994 115.332 C 199.997 115.063,200.281 114.844,200.624 114.844 C 203.013 114.844,212.588 106.687,215.756 101.952 C 218.479 97.882,221.652 90.774,220.400 91.548 C 220.106 91.729,220.098 91.388,220.371 90.397 C 220.955 88.282,220.574 88.392,218.645 90.894 M117.004 110.956 C 117.118 111.141,116.571 111.235,115.789 111.165 C 114.003 111.005,111.657 111.688,112.004 112.268 C 112.183 112.568,112.091 112.566,111.696 112.261 C 111.037 111.753,108.760 112.516,109.268 113.074 C 109.434 113.257,109.340 113.274,109.058 113.111 C 107.059 111.957,95.125 119.153,88.373 125.585 C 84.645 129.137,82.896 131.188,84.375 130.273 C 85.011 129.880,84.820 130.329,84.105 130.909 C 83.535 131.371,83.490 131.365,83.781 130.859 C 83.992 130.493,83.801 130.553,83.270 131.018 C 82.259 131.905,82.186 132.205,83.063 131.869 C 83.597 131.664,83.623 131.721,83.214 132.213 C 82.945 132.538,82.592 132.722,82.430 132.622 C 81.945 132.323,80.757 133.894,81.077 134.411 C 81.257 134.702,81.208 134.786,80.950 134.626 C 80.718 134.483,80.163 134.878,79.717 135.505 C 78.796 136.799,78.681 137.285,79.395 136.874 C 79.678 136.711,79.746 136.742,79.557 136.949 C 79.378 137.145,79.027 137.309,78.776 137.313 C 78.525 137.318,78.376 137.644,78.444 138.036 C 78.528 138.521,78.412 138.654,78.085 138.452 C 77.750 138.245,77.677 138.349,77.846 138.791 C 77.981 139.141,77.896 139.549,77.657 139.696 C 77.369 139.874,77.334 139.780,77.554 139.416 C 77.836 138.948,77.784 138.949,77.205 139.419 C 76.799 139.748,76.684 140.068,76.919 140.214 C 77.164 140.365,77.049 140.860,76.616 141.521 C 76.232 142.106,75.813 142.480,75.686 142.353 C 75.344 142.011,74.531 143.698,74.816 144.158 C 74.949 144.374,74.825 144.502,74.541 144.443 C 74.217 144.376,74.009 144.740,73.984 145.417 C 73.962 146.012,73.802 146.627,73.629 146.784 C 73.455 146.942,73.423 146.763,73.558 146.387 C 73.693 146.011,73.711 145.703,73.599 145.703 C 73.174 145.703,71.846 149.247,72.110 149.674 C 72.269 149.931,72.214 150.014,71.982 149.871 C 71.212 149.395,67.245 158.911,67.823 159.846 C 67.974 160.090,67.912 160.167,67.679 160.024 C 67.454 159.884,67.163 160.047,67.033 160.386 C 66.691 161.278,66.737 161.409,67.285 161.089 C 67.554 160.932,67.445 161.178,67.042 161.637 C 66.592 162.150,66.413 162.735,66.575 163.157 C 66.720 163.535,66.710 163.715,66.554 163.559 C 66.207 163.212,65.515 165.157,64.657 168.888 C 63.640 173.308,63.581 173.726,64.072 173.047 C 64.424 172.559,64.471 172.592,64.353 173.242 C 64.275 173.672,64.031 173.989,63.811 173.947 C 63.591 173.906,63.409 174.081,63.405 174.338 C 63.402 174.595,63.266 175.398,63.103 176.123 C 62.866 177.180,62.912 177.378,63.337 177.122 C 63.749 176.874,63.772 176.929,63.440 177.366 C 62.568 178.514,62.399 179.471,63.175 178.871 C 63.828 178.364,63.831 178.377,63.218 179.108 C 62.734 179.685,62.610 180.412,62.734 181.957 C 62.853 183.460,62.737 184.194,62.310 184.621 C 61.920 185.011,61.833 185.432,62.053 185.867 C 62.236 186.228,62.391 187.666,62.397 189.063 L 62.409 191.602 62.125 189.648 L 61.841 187.695 61.739 190.234 C 61.473 196.855,61.714 204.496,62.109 201.953 L 62.383 200.195 62.441 202.028 C 62.474 203.036,62.340 203.959,62.144 204.080 C 61.948 204.201,61.847 204.607,61.919 204.982 C 61.991 205.357,62.081 206.191,62.118 206.836 C 62.186 207.993,62.191 207.995,62.500 207.031 C 62.794 206.113,62.815 206.132,62.852 207.347 C 62.875 208.108,62.732 208.542,62.504 208.401 C 62.292 208.270,62.192 208.391,62.283 208.671 C 62.373 208.951,62.552 210.322,62.680 211.719 C 62.891 214.015,63.009 214.865,63.469 217.383 C 63.548 217.813,63.628 218.428,63.648 218.750 C 63.680 219.271,63.726 219.271,64.063 218.750 C 64.290 218.398,64.444 218.350,64.447 218.629 C 64.450 218.885,64.296 219.192,64.104 219.310 C 63.453 219.713,66.266 231.611,67.086 231.926 C 67.357 232.030,67.578 232.282,67.578 232.487 C 67.578 232.691,67.428 232.766,67.244 232.652 C 66.646 232.283,67.260 234.556,67.893 235.059 C 68.232 235.327,68.315 235.547,68.079 235.547 C 67.793 235.547,67.858 236.199,68.275 237.500 C 68.618 238.574,69.129 239.453,69.410 239.453 C 69.692 239.453,69.922 239.639,69.922 239.867 C 69.922 240.094,69.716 240.153,69.465 239.998 C 69.153 239.805,69.091 239.933,69.270 240.398 C 69.413 240.773,69.531 241.163,69.531 241.266 C 69.531 241.368,69.681 241.360,69.865 241.246 C 70.048 241.133,70.401 241.485,70.649 242.029 C 70.913 242.609,70.937 242.918,70.706 242.775 C 69.812 242.223,70.726 244.794,71.641 245.404 C 71.937 245.602,71.918 245.693,71.579 245.697 C 71.190 245.702,71.186 245.862,71.559 246.459 C 71.819 246.875,72.216 247.105,72.441 246.970 C 72.667 246.835,72.610 247.022,72.315 247.386 C 71.821 247.995,71.975 248.224,72.783 248.083 C 72.960 248.053,72.987 248.218,72.843 248.451 C 72.330 249.281,75.569 256.424,76.268 256.004 C 76.656 255.770,76.656 255.836,76.265 256.319 C 75.862 256.815,75.882 257.019,76.371 257.425 C 76.882 257.849,76.931 257.813,76.705 257.184 C 76.372 256.264,76.698 256.549,77.300 257.706 C 77.679 258.436,77.657 258.540,77.161 258.349 C 76.564 258.120,78.199 261.474,81.326 266.895 C 82.814 269.474,83.424 270.215,82.933 268.848 C 82.669 268.111,82.731 268.154,83.607 269.313 C 83.965 269.788,83.997 269.962,83.691 269.778 C 82.843 269.269,83.157 270.300,84.399 272.106 C 85.057 273.062,85.748 273.750,85.935 273.634 C 86.121 273.519,86.401 273.631,86.557 273.882 C 86.733 274.168,86.670 274.235,86.388 274.061 C 85.467 273.491,85.987 274.768,87.598 277.031 C 103.740 299.707,118.428 313.764,142.773 329.835 C 145.630 331.721,149.302 333.589,149.686 333.351 C 149.869 333.238,149.971 333.356,149.912 333.613 C 149.781 334.183,153.116 335.991,153.829 335.737 C 154.109 335.637,154.238 335.717,154.115 335.915 C 153.993 336.113,154.072 336.385,154.291 336.519 C 155.932 337.534,153.952 335.145,150.293 331.695 C 137.462 319.598,127.312 308.355,118.504 296.484 C 98.911 270.079,86.723 242.203,82.467 214.063 C 75.940 170.908,88.941 130.535,114.922 113.276 C 117.576 111.514,118.154 110.975,117.559 110.819 C 117.139 110.709,116.889 110.771,117.004 110.956 M124.805 118.282 C 110.203 124.520,99.334 136.630,94.155 152.435 C 92.501 157.480,92.699 158.006,95.114 154.982 C 109.406 137.083,124.413 127.479,138.770 127.043 C 141.938 126.947,144.531 126.731,144.531 126.563 C 144.531 125.763,141.721 122.303,140.006 120.993 C 136.011 117.940,128.671 116.631,124.805 118.282 M181.738 118.644 C 182.544 118.728,183.862 118.728,184.668 118.644 C 185.474 118.560,184.814 118.491,183.203 118.491 C 181.592 118.491,180.933 118.560,181.738 118.644 M173.610 136.736 C 200.465 167.098,228.476 179.068,249.865 169.321 C 257.159 165.997,260.685 162.518,272.852 146.638 C 275.774 142.824,275.722 142.980,274.052 143.043 C 273.285 143.072,272.656 143.226,272.656 143.386 C 272.656 143.546,272.330 143.592,271.931 143.487 C 270.520 143.118,257.076 148.339,257.903 148.935 C 258.259 149.192,258.214 149.234,257.743 149.083 C 256.992 148.844,254.688 149.617,254.688 150.109 C 254.688 150.289,254.482 150.310,254.230 150.154 C 253.916 149.960,253.858 150.092,254.044 150.577 C 254.272 151.171,254.222 151.205,253.725 150.793 C 253.242 150.392,253.090 150.418,252.893 150.930 C 252.761 151.276,252.524 151.479,252.367 151.382 C 251.795 151.028,249.806 151.850,249.930 152.388 C 250.028 152.810,249.950 152.826,249.579 152.461 C 249.209 152.097,248.877 152.110,248.086 152.518 C 247.528 152.807,244.838 153.532,242.110 154.130 C 239.381 154.728,237.229 155.346,237.326 155.504 C 237.524 155.823,236.471 155.742,236.141 155.412 C 236.026 155.297,235.098 155.335,234.079 155.497 C 233.060 155.659,229.546 155.801,226.270 155.814 C 222.993 155.827,220.269 155.857,220.215 155.881 C 219.496 156.197,217.907 156.157,218.555 155.839 C 219.132 155.555,218.775 155.499,217.188 155.622 C 216.006 155.715,215.303 155.686,215.625 155.558 C 215.969 155.422,215.404 155.143,214.258 154.883 C 212.869 154.568,212.142 154.560,211.741 154.856 C 211.332 155.160,211.251 155.152,211.445 154.828 C 211.617 154.541,211.194 154.286,210.250 154.111 C 209.447 153.962,207.310 153.413,205.502 152.891 C 203.694 152.368,201.849 152.043,201.401 152.168 C 200.913 152.304,200.771 152.265,201.047 152.070 C 201.350 151.857,200.878 151.497,199.680 151.026 C 195.116 149.233,188.600 146.006,185.372 143.942 C 184.151 143.161,182.974 142.665,182.706 142.818 C 182.442 142.970,182.353 142.954,182.507 142.784 C 182.660 142.613,181.518 141.476,179.967 140.257 C 177.098 138.001,175.476 137.067,176.031 137.993 C 176.226 138.317,176.105 138.301,175.665 137.944 C 175.304 137.651,175.079 137.298,175.165 137.158 C 175.251 137.019,175.050 136.556,174.717 136.129 C 174.196 135.457,174.147 135.448,174.359 136.060 C 174.573 136.678,174.444 136.656,173.337 135.881 C 172.091 135.009,172.095 135.023,173.610 136.736 M301.953 148.831 C 301.953 149.048,303.060 150.762,304.412 152.640 C 323.912 179.721,325.121 223.229,307.582 266.767 C 305.073 272.995,306.566 270.912,311.061 261.914 C 335.666 212.652,336.990 159.993,313.867 150.278 C 310.071 148.683,301.953 147.697,301.953 148.831 " stroke="none" fill="#cadae3" fill-rule="evenodd"></path><path id="path1" d="M178.807 42.249 C 178.578 42.390,178.155 42.415,177.867 42.305 C 177.579 42.194,177.036 42.234,176.660 42.393 C 176.284 42.551,175.556 42.737,175.043 42.804 C 174.530 42.872,173.826 43.048,173.481 43.195 C 173.135 43.342,172.428 43.518,171.910 43.586 C 171.393 43.654,170.846 43.910,170.695 44.154 C 170.544 44.398,170.308 44.583,170.171 44.565 C 169.309 44.449,168.742 44.595,168.290 45.047 C 168.006 45.331,167.598 45.597,167.383 45.638 C 166.372 45.831,165.625 46.174,165.625 46.446 C 165.625 46.610,165.391 46.745,165.106 46.745 C 161.218 46.745,150.691 58.764,147.826 66.475 C 145.373 73.074,144.394 89.063,146.442 89.063 C 146.589 89.063,146.752 89.631,146.805 90.326 C 146.858 91.020,147.071 91.759,147.279 91.966 C 147.486 92.174,147.656 92.680,147.656 93.091 C 147.656 94.805,149.727 97.737,150.679 97.371 C 150.992 97.251,151.694 97.664,152.295 98.321 C 154.123 100.323,158.177 102.681,164.453 105.393 C 177.432 111.001,194.562 108.888,207.775 100.048 C 212.056 97.184,220.472 88.701,219.750 87.979 C 219.494 87.723,220.820 86.354,221.135 86.549 C 221.399 86.712,221.699 86.092,222.190 84.375 C 222.506 83.267,222.461 76.757,222.127 75.391 C 221.943 74.639,221.804 73.540,221.818 72.949 C 221.832 72.358,221.712 71.875,221.552 71.875 C 221.391 71.875,221.219 71.304,221.169 70.605 C 221.064 69.150,220.453 67.085,219.666 65.531 C 219.369 64.943,219.112 64.328,219.097 64.164 C 219.044 63.593,217.797 61.719,217.471 61.719 C 217.290 61.719,217.229 61.577,217.335 61.405 C 217.442 61.232,216.577 59.870,215.414 58.377 C 214.250 56.885,213.294 55.444,213.290 55.176 C 213.285 54.907,213.062 54.731,212.793 54.785 C 212.524 54.839,212.353 54.650,212.412 54.365 C 212.471 54.081,212.363 53.945,212.171 54.063 C 211.980 54.182,211.492 53.890,211.087 53.415 C 210.363 52.566,210.364 52.562,211.110 53.132 C 211.635 53.533,211.774 53.553,211.560 53.199 C 211.391 52.917,210.819 52.522,210.290 52.320 C 209.668 52.084,209.432 51.782,209.622 51.466 C 209.794 51.179,209.611 51.219,209.180 51.563 C 208.775 51.885,208.559 51.955,208.701 51.719 C 209.007 51.207,207.615 49.609,206.863 49.609 C 206.572 49.609,206.232 49.346,206.109 49.023 C 205.985 48.701,205.710 48.438,205.498 48.438 C 205.130 48.438,202.946 47.094,201.432 45.936 C 201.038 45.635,200.285 45.436,199.759 45.493 C 199.233 45.551,198.895 45.506,199.009 45.392 C 199.216 45.185,196.414 43.787,195.313 43.547 C 194.990 43.477,194.727 43.392,194.727 43.359 C 194.727 43.284,193.355 42.945,192.571 42.826 C 192.245 42.777,191.737 42.587,191.442 42.405 C 190.809 42.014,179.415 41.874,178.807 42.249 M191.459 45.990 C 192.144 46.675,191.869 46.813,188.993 47.220 C 179.649 48.543,172.493 53.678,165.246 64.258 C 159.388 72.812,153.853 76.453,151.018 73.618 C 150.109 72.709,154.245 62.518,156.416 60.320 C 156.647 60.086,157.188 59.383,157.617 58.757 C 161.373 53.290,170.663 47.453,177.734 46.117 C 178.916 45.893,180.234 45.633,180.664 45.538 C 182.398 45.154,190.983 45.513,191.459 45.990 M124.032 109.692 C 123.718 110.006,123.512 110.042,121.657 110.107 C 120.889 110.134,120.369 110.322,120.496 110.527 C 120.686 110.835,119.434 111.826,118.750 111.910 C 118.559 111.934,118.000 112.276,114.508 114.505 C 92.601 128.493,78.323 167.591,82.033 203.433 C 82.249 205.520,82.517 208.105,82.629 209.180 C 82.943 212.204,83.913 218.246,84.604 221.484 C 85.441 225.412,87.440 233.551,87.864 234.766 C 88.052 235.303,88.948 238.027,89.855 240.820 C 90.761 243.613,91.657 246.065,91.845 246.270 C 92.034 246.474,92.188 246.872,92.187 247.155 C 92.187 249.082,101.724 269.137,105.708 275.586 C 106.902 277.520,108.221 279.717,108.638 280.469 C 112.053 286.620,125.538 304.809,131.250 310.969 C 131.572 311.316,133.418 313.341,135.352 315.468 C 139.510 320.043,147.104 327.629,152.712 332.813 C 154.921 334.854,157.148 337.136,157.661 337.884 C 158.174 338.632,158.594 339.094,158.594 338.910 C 158.594 338.726,158.875 338.810,159.219 339.095 C 159.563 339.381,160.131 339.656,160.482 339.708 C 160.832 339.759,161.181 339.988,161.257 340.216 C 161.333 340.443,161.556 340.531,161.752 340.409 C 161.949 340.288,162.109 340.404,162.109 340.667 C 162.109 340.930,162.215 341.041,162.343 340.912 C 162.614 340.641,165.681 342.140,166.107 342.752 C 166.265 342.979,166.397 343.037,166.400 342.881 C 166.404 342.726,167.293 343.121,168.377 343.760 C 169.460 344.399,170.525 344.922,170.743 344.922 C 170.961 344.922,171.876 345.332,172.776 345.834 C 173.677 346.335,174.897 346.866,175.488 347.013 C 176.079 347.160,176.563 347.463,176.563 347.687 C 176.562 347.910,176.738 347.984,176.953 347.852 C 177.168 347.719,177.344 347.826,177.344 348.089 C 177.344 348.352,177.452 348.460,177.583 348.328 C 177.877 348.034,180.823 349.142,181.672 349.866 C 182.012 350.156,182.402 350.280,182.539 350.143 C 182.676 350.006,183.261 350.204,183.840 350.583 C 184.451 350.984,185.889 351.337,187.270 351.426 C 188.578 351.510,189.890 351.666,190.186 351.773 C 190.482 351.879,190.965 351.766,191.260 351.521 C 191.555 351.277,191.797 351.176,191.797 351.299 C 191.797 351.422,192.324 351.338,192.969 351.113 C 193.613 350.889,194.141 350.536,194.141 350.329 C 194.141 350.123,194.308 350.057,194.512 350.183 C 194.716 350.309,195.073 350.056,195.307 349.620 C 195.540 349.185,195.988 348.828,196.303 348.828 C 196.618 348.828,196.875 348.652,196.875 348.438 C 196.875 348.223,197.127 348.047,197.434 348.047 C 197.742 348.047,198.371 347.517,198.831 346.870 C 199.292 346.223,199.836 345.797,200.040 345.923 C 200.243 346.049,200.362 345.995,200.303 345.802 C 200.244 345.610,200.721 344.998,201.364 344.443 L 202.532 343.433 201.765 342.517 C 201.343 342.014,201.248 341.821,201.553 342.090 C 202.434 342.863,202.993 342.668,203.516 341.406 C 203.783 340.762,204.155 340.234,204.344 340.234 C 204.533 340.234,204.688 339.971,204.688 339.648 C 204.688 339.326,204.869 339.063,205.092 339.063 C 205.368 339.063,205.365 338.817,205.083 338.290 C 204.742 337.652,204.777 337.559,205.288 337.755 C 205.705 337.915,205.977 337.722,206.124 337.160 C 206.243 336.703,206.507 336.328,206.709 336.328 C 206.912 336.328,206.969 336.152,206.836 335.938 C 206.703 335.723,206.810 335.547,207.073 335.547 C 207.337 335.547,207.436 335.431,207.295 335.290 C 207.154 335.148,207.209 334.827,207.417 334.576 C 207.800 334.114,208.121 332.821,208.174 331.520 C 208.191 331.096,208.381 330.923,208.646 331.087 C 208.953 331.276,209.035 330.988,208.912 330.154 C 208.815 329.491,208.840 329.012,208.968 329.092 C 209.096 329.171,209.197 328.387,209.192 327.350 C 209.187 326.312,209.050 325.545,208.888 325.645 C 208.726 325.745,208.594 325.525,208.594 325.155 C 208.594 323.905,206.714 321.295,205.110 320.318 C 204.233 319.784,203.516 319.229,203.516 319.085 C 203.516 318.733,191.184 318.930,189.453 319.310 C 188.701 319.475,187.340 319.636,186.428 319.668 C 185.515 319.700,184.768 319.879,184.767 320.065 C 184.766 320.251,184.414 320.312,183.985 320.199 C 183.555 320.087,183.104 320.157,182.981 320.356 C 182.859 320.554,182.595 320.615,182.395 320.491 C 182.195 320.368,181.812 320.404,181.543 320.571 C 181.079 320.861,180.479 321.003,178.711 321.243 C 178.281 321.302,177.666 321.452,177.344 321.578 C 175.700 322.218,174.289 322.507,173.145 322.436 C 172.446 322.392,171.875 322.497,171.875 322.668 C 171.875 322.838,171.431 322.929,170.889 322.870 C 170.347 322.810,169.808 322.916,169.691 323.104 C 169.575 323.292,169.008 323.436,168.431 323.424 C 167.855 323.411,166.768 323.501,166.016 323.623 C 161.319 324.383,157.031 324.101,157.031 323.032 C 157.031 322.825,156.899 322.677,156.738 322.703 C 155.933 322.830,155.469 322.599,155.469 322.070 C 155.469 321.748,155.299 321.484,155.092 321.484 C 154.637 321.484,154.108 320.510,153.749 319.010 C 153.568 318.252,153.619 317.987,153.913 318.168 C 154.372 318.452,154.207 315.646,153.718 314.855 C 153.575 314.623,153.632 314.482,153.846 314.541 C 154.190 314.636,156.522 312.398,157.031 311.483 C 157.139 311.291,157.444 311.157,157.711 311.186 C 157.977 311.216,158.114 311.109,158.015 310.949 C 157.916 310.789,158.709 310.183,159.777 309.602 C 160.845 309.021,161.721 308.688,161.725 308.862 C 161.728 309.037,161.864 308.971,162.026 308.715 C 162.188 308.460,162.831 308.158,163.453 308.046 C 164.076 307.933,164.722 307.619,164.889 307.349 C 165.055 307.079,165.319 306.986,165.475 307.142 C 165.631 307.297,166.167 307.156,166.668 306.828 C 167.169 306.500,167.578 306.330,167.578 306.450 C 167.578 306.570,167.974 306.449,168.457 306.182 C 168.940 305.914,169.556 305.740,169.824 305.795 C 170.093 305.849,170.313 305.710,170.313 305.486 C 170.313 305.262,170.444 305.122,170.605 305.176 C 171.125 305.348,175.000 304.167,175.000 303.836 C 175.000 303.660,175.132 303.544,175.293 303.580 C 175.790 303.689,177.870 303.047,179.102 302.404 C 179.746 302.068,180.405 301.829,180.566 301.873 C 180.728 301.917,180.859 301.759,180.859 301.521 C 180.859 301.283,181.096 301.179,181.385 301.290 C 181.674 301.401,182.684 301.127,183.631 300.681 C 185.443 299.828,185.686 299.737,186.351 299.658 C 186.579 299.631,186.679 299.470,186.574 299.300 C 186.468 299.130,186.762 298.962,187.227 298.927 C 187.691 298.892,188.269 298.592,188.512 298.260 C 188.755 297.928,189.236 297.656,189.581 297.656 C 189.926 297.656,190.866 296.999,191.670 296.195 C 192.474 295.391,192.994 294.995,192.826 295.316 C 192.658 295.636,192.786 295.572,193.111 295.173 C 193.436 294.774,194.335 293.763,195.109 292.927 C 195.883 292.090,196.416 291.406,196.295 291.406 C 196.173 291.406,196.381 290.835,196.757 290.137 C 197.133 289.438,197.496 288.516,197.563 288.086 C 197.864 286.159,197.864 282.875,197.563 281.445 C 197.383 280.586,197.172 279.509,197.095 279.052 C 197.018 278.596,196.761 277.861,196.526 277.421 C 196.290 276.980,196.203 276.343,196.332 276.005 C 196.467 275.654,196.364 275.391,196.094 275.391 C 195.833 275.391,195.721 275.127,195.844 274.805 C 195.968 274.482,195.889 274.219,195.668 274.219 C 195.447 274.219,195.382 274.032,195.523 273.804 C 195.664 273.575,195.490 273.068,195.135 272.676 C 194.781 272.285,194.443 271.549,194.384 271.041 C 194.226 269.677,193.483 268.080,192.896 267.845 C 192.474 267.676,192.474 267.634,192.899 267.609 C 193.289 267.586,193.264 267.427,192.798 266.961 C 192.458 266.621,192.269 266.200,192.377 266.025 C 192.485 265.850,192.309 265.605,191.986 265.481 C 191.663 265.358,191.438 265.119,191.486 264.952 C 191.533 264.785,191.377 264.297,191.138 263.867 C 190.899 263.438,190.642 262.734,190.566 262.305 C 190.491 261.875,190.333 261.436,190.214 261.328 C 189.682 260.848,188.249 258.203,188.519 258.203 C 188.685 258.203,188.480 257.954,188.064 257.649 C 187.647 257.344,187.436 256.965,187.595 256.806 C 187.754 256.647,187.670 256.260,187.409 255.945 C 186.985 255.434,185.686 253.117,184.296 250.391 C 184.022 249.854,183.575 249.180,183.302 248.894 C 183.029 248.608,182.896 248.228,183.007 248.049 C 183.117 247.870,182.987 247.649,182.717 247.559 C 180.714 246.892,182.812 239.646,185.309 238.610 C 187.928 237.522,194.531 238.658,194.531 240.196 C 194.531 240.351,194.851 240.821,195.242 241.240 C 196.261 242.334,200.403 248.438,200.127 248.438 C 199.999 248.438,200.398 248.833,201.014 249.316 C 201.630 249.800,202.262 250.153,202.420 250.102 C 202.577 250.051,202.604 250.276,202.479 250.601 C 202.221 251.273,204.142 253.267,204.710 252.916 C 204.908 252.794,204.976 252.937,204.862 253.235 C 204.740 253.552,205.428 254.489,206.526 255.501 C 207.556 256.450,208.354 257.358,208.301 257.520 C 208.247 257.681,208.339 257.769,208.504 257.715 C 208.669 257.661,209.065 257.844,209.383 258.120 C 209.701 258.397,211.367 259.529,213.086 260.634 C 214.805 261.740,216.299 262.744,216.406 262.866 C 216.514 262.987,216.937 263.144,217.347 263.215 C 217.756 263.286,218.503 263.614,219.007 263.943 C 219.510 264.273,219.925 264.391,219.928 264.205 C 219.931 264.019,220.079 264.096,220.256 264.375 C 220.434 264.655,221.010 264.930,221.536 264.986 C 222.063 265.042,222.750 265.253,223.063 265.454 C 224.069 266.101,234.772 266.071,237.346 265.415 C 240.404 264.635,243.750 263.281,243.750 262.822 C 243.750 262.620,243.884 262.537,244.047 262.638 C 244.211 262.739,245.045 262.313,245.903 261.692 C 246.760 261.072,247.826 260.400,248.271 260.200 C 249.146 259.808,257.579 251.567,257.116 251.556 C 256.962 251.553,257.431 251.025,258.158 250.384 C 258.886 249.743,259.342 249.219,259.173 249.219 C 259.003 249.219,259.270 248.867,259.766 248.438 C 260.261 248.008,260.508 247.656,260.314 247.655 C 260.120 247.655,260.576 247.128,261.328 246.484 C 262.080 245.841,262.537 245.314,262.343 245.313 C 262.149 245.313,262.341 245.005,262.770 244.629 C 263.199 244.253,263.466 243.701,263.365 243.403 C 263.262 243.102,263.357 242.970,263.577 243.105 C 263.795 243.240,264.191 243.089,264.457 242.769 C 264.722 242.449,264.828 242.188,264.693 242.188 C 264.557 242.188,264.992 241.616,265.660 240.918 C 266.327 240.220,266.925 239.736,266.989 239.844 C 267.053 239.951,267.446 239.731,267.862 239.355 C 268.278 238.978,268.730 238.782,268.867 238.919 C 269.004 239.056,269.649 238.947,270.300 238.677 C 271.168 238.317,271.624 238.301,272.004 238.617 C 272.289 238.853,272.870 239.100,273.296 239.165 C 274.116 239.290,276.631 241.402,275.973 241.412 C 275.760 241.416,275.812 241.562,276.088 241.737 C 276.365 241.912,276.602 242.829,276.617 243.782 C 276.653 246.032,276.553 246.500,275.412 249.414 C 275.243 249.844,275.083 250.327,275.054 250.489 C 275.026 250.650,274.030 252.628,272.842 254.883 C 271.654 257.139,270.787 258.984,270.916 258.984 C 271.044 258.984,270.873 259.261,270.536 259.598 C 270.198 259.936,269.922 260.463,269.922 260.770 C 269.922 261.077,269.727 261.328,269.489 261.328 C 269.252 261.328,269.162 261.601,269.290 261.934 C 269.423 262.282,269.358 262.439,269.136 262.302 C 268.793 262.090,268.560 262.916,268.713 263.799 C 268.744 263.976,268.589 264.009,268.369 263.873 C 268.149 263.737,267.969 263.812,267.969 264.039 C 267.969 264.908,267.900 265.062,267.160 265.849 C 266.742 266.295,266.518 266.778,266.663 266.924 C 266.808 267.069,266.712 267.188,266.448 267.188 C 266.185 267.188,266.071 267.351,266.194 267.551 C 266.318 267.751,266.241 268.025,266.023 268.159 C 265.577 268.435,263.279 273.053,263.321 273.589 C 263.336 273.780,263.198 274.044,263.014 274.175 C 262.690 274.406,261.638 276.557,261.655 276.953 C 261.659 277.061,261.395 277.445,261.067 277.807 C 260.739 278.170,260.586 278.653,260.727 278.882 C 260.868 279.110,260.787 279.297,260.547 279.297 C 260.307 279.297,260.219 279.473,260.352 279.688 C 260.484 279.902,260.396 280.078,260.156 280.078 C 259.916 280.078,259.828 280.254,259.961 280.469 C 260.094 280.684,260.052 280.859,259.867 280.859 C 259.483 280.859,258.594 283.129,258.594 284.110 C 258.594 284.470,258.432 284.766,258.234 284.766 C 258.036 284.766,257.741 285.337,257.577 286.035 C 257.414 286.733,257.214 287.568,257.133 287.891 C 257.052 288.213,256.966 288.696,256.943 288.965 C 256.920 289.233,256.760 289.453,256.588 289.453 C 256.415 289.453,256.376 289.717,256.499 290.039 C 256.623 290.361,256.559 290.625,256.357 290.625 C 256.155 290.625,255.970 290.845,255.946 291.113 C 255.899 291.639,255.006 294.973,253.984 298.438 C 253.635 299.619,253.331 300.674,253.308 300.781 C 253.285 300.889,252.869 302.241,252.383 303.786 C 251.897 305.332,251.462 306.826,251.415 307.107 C 251.368 307.387,251.112 308.013,250.846 308.496 C 250.581 308.979,250.479 309.375,250.620 309.375 C 250.761 309.375,250.636 309.672,250.341 310.036 C 249.878 310.606,249.885 310.649,250.391 310.352 C 250.896 310.054,250.903 310.097,250.440 310.667 C 250.146 311.031,250.035 311.328,250.195 311.328 C 250.355 311.328,250.253 311.609,249.968 311.952 C 249.684 312.295,249.397 312.924,249.332 313.349 C 249.268 313.775,248.950 314.387,248.627 314.710 C 248.304 315.033,248.127 315.439,248.234 315.612 C 248.341 315.785,248.169 316.143,247.852 316.406 C 247.534 316.670,247.371 317.041,247.488 317.232 C 247.606 317.422,247.506 317.578,247.266 317.578 C 247.025 317.578,246.938 317.754,247.070 317.969 C 247.203 318.184,247.096 318.359,246.833 318.359 C 246.570 318.359,246.470 318.475,246.611 318.616 C 246.753 318.758,246.713 319.065,246.523 319.300 C 246.333 319.535,245.789 320.430,245.315 321.289 C 244.841 322.148,244.087 323.511,243.639 324.316 C 243.191 325.122,242.594 325.781,242.311 325.781 C 242.028 325.781,241.841 325.921,241.895 326.091 C 241.948 326.262,241.228 327.130,240.294 328.020 C 239.360 328.911,238.711 329.826,238.852 330.054 C 238.993 330.282,238.896 330.469,238.637 330.469 C 238.377 330.469,237.575 331.076,236.854 331.818 C 236.133 332.561,234.753 333.712,233.787 334.376 C 232.821 335.041,232.031 335.762,232.031 335.979 C 232.031 336.197,231.887 336.285,231.712 336.177 C 231.536 336.068,231.146 336.321,230.844 336.740 C 230.543 337.158,230.055 337.500,229.759 337.500 C 229.169 337.500,227.422 338.665,225.909 340.068 C 225.375 340.562,224.425 341.080,223.797 341.218 C 223.170 341.356,222.656 341.618,222.656 341.802 C 222.656 341.985,222.307 342.246,221.880 342.381 C 220.986 342.665,218.750 344.797,218.750 345.366 C 218.750 345.577,218.570 345.638,218.350 345.502 C 218.130 345.366,217.991 345.399,218.042 345.576 C 218.093 345.754,217.917 346.291,217.651 346.770 C 217.113 347.741,217.181 350.780,217.741 350.781 C 217.938 350.781,217.996 350.884,217.870 351.010 C 217.395 351.485,219.353 353.152,220.866 353.559 C 223.061 354.151,229.297 353.215,229.297 352.294 C 229.297 352.120,229.589 352.090,229.947 352.227 C 230.419 352.408,230.509 352.335,230.277 351.959 C 230.064 351.615,230.108 351.535,230.408 351.721 C 230.656 351.874,231.079 351.860,231.348 351.689 C 231.616 351.519,231.924 351.366,232.031 351.349 C 232.139 351.333,232.889 351.030,233.698 350.677 C 234.508 350.323,235.248 350.070,235.342 350.115 C 235.436 350.159,235.798 349.844,236.145 349.414 C 236.492 348.984,236.644 348.887,236.482 349.198 C 236.303 349.542,236.653 349.432,237.376 348.916 C 238.030 348.451,238.677 348.182,238.814 348.319 C 238.951 348.456,239.063 348.352,239.063 348.089 C 239.063 347.826,239.238 347.719,239.453 347.852 C 239.668 347.984,239.844 347.907,239.844 347.679 C 239.844 347.452,240.195 347.266,240.625 347.266 C 241.055 347.266,241.758 346.914,242.188 346.484 C 242.617 346.055,243.232 345.703,243.555 345.703 C 243.877 345.703,244.141 345.527,244.141 345.313 C 244.141 345.098,244.360 344.966,244.629 345.020 C 244.897 345.073,245.073 344.897,245.020 344.629 C 244.966 344.360,245.054 344.160,245.215 344.183 C 245.858 344.276,247.266 343.634,247.266 343.249 C 247.266 343.023,247.382 342.955,247.524 343.096 C 247.665 343.238,248.027 343.004,248.327 342.576 C 248.627 342.147,249.134 341.797,249.453 341.797 C 249.773 341.797,250.498 341.367,251.065 340.841 C 251.632 340.316,252.239 339.974,252.415 340.083 C 252.591 340.192,252.734 340.115,252.734 339.912 C 252.734 339.710,253.104 339.448,253.555 339.330 C 254.006 339.212,254.275 338.952,254.152 338.753 C 254.028 338.553,254.639 338.070,255.508 337.678 C 256.377 337.286,257.342 336.602,257.653 336.158 C 257.964 335.715,258.347 335.352,258.504 335.352 C 258.661 335.352,258.741 335.207,258.682 335.030 C 258.623 334.852,258.749 334.815,258.961 334.947 C 259.174 335.078,259.994 334.520,260.784 333.706 C 261.573 332.892,262.091 332.490,261.936 332.813 C 261.780 333.135,262.210 332.783,262.891 332.031 C 263.571 331.279,263.996 330.928,263.835 331.250 C 263.673 331.572,264.142 331.212,264.876 330.449 C 265.610 329.686,266.535 328.938,266.932 328.787 C 267.328 328.636,267.743 328.163,267.855 327.737 C 267.966 327.311,268.185 327.041,268.342 327.137 C 268.498 327.234,269.011 326.793,269.481 326.157 C 269.951 325.520,270.563 325.000,270.841 325.000 C 271.119 325.000,272.057 324.127,272.925 323.059 C 273.793 321.992,274.615 321.230,274.752 321.366 C 274.888 321.503,275.000 321.447,275.000 321.243 C 275.000 321.039,275.530 320.558,276.179 320.175 C 276.827 319.792,277.253 319.311,277.126 319.105 C 276.999 318.899,277.040 318.775,277.217 318.828 C 277.606 318.946,279.913 316.815,279.810 316.433 C 279.769 316.284,280.121 315.726,280.591 315.192 C 281.061 314.658,281.270 314.493,281.055 314.825 C 280.840 315.158,281.584 314.551,282.709 313.477 C 283.833 312.402,284.756 311.293,284.760 311.012 C 284.763 310.731,284.946 310.612,285.166 310.748 C 285.386 310.884,285.521 310.851,285.465 310.674 C 285.301 310.155,287.206 307.812,287.792 307.813 C 288.086 307.813,288.230 307.654,288.110 307.461 C 287.991 307.268,288.514 306.565,289.273 305.899 C 290.031 305.233,290.560 304.687,290.447 304.687 C 290.196 304.688,291.359 303.233,292.265 302.414 C 292.630 302.084,292.847 301.682,292.748 301.521 C 292.648 301.360,292.923 301.115,293.359 300.977 C 293.795 300.838,294.058 300.573,293.943 300.387 C 293.828 300.200,293.961 299.905,294.239 299.731 C 294.518 299.557,295.036 298.975,295.391 298.438 C 295.745 297.900,296.576 296.846,297.236 296.094 C 297.896 295.342,298.436 294.621,298.437 294.492 C 298.437 294.362,298.921 293.725,299.512 293.076 C 301.063 291.372,301.968 290.162,302.443 289.160 C 302.672 288.677,303.007 288.281,303.188 288.281 C 303.368 288.281,303.516 288.012,303.516 287.683 C 303.516 287.354,303.779 286.984,304.102 286.860 C 304.424 286.736,304.688 286.390,304.688 286.091 C 304.688 285.792,304.863 285.547,305.078 285.547 C 305.293 285.547,305.469 285.316,305.469 285.035 C 305.469 284.753,305.837 284.127,306.288 283.643 C 306.739 283.159,307.144 282.517,307.188 282.216 C 307.232 281.914,307.702 281.178,308.233 280.580 C 309.283 279.396,311.127 276.537,311.131 276.087 C 311.132 275.933,311.426 275.464,311.784 275.046 C 312.143 274.627,312.333 274.182,312.207 274.056 C 312.082 273.931,312.185 273.828,312.436 273.828 C 312.687 273.828,313.198 273.125,313.570 272.266 C 313.942 271.406,314.384 270.703,314.552 270.703 C 314.720 270.703,315.484 269.385,316.249 267.773 C 317.013 266.162,317.812 264.844,318.022 264.844 C 318.233 264.844,318.297 264.668,318.164 264.453 C 318.031 264.238,318.090 264.063,318.295 264.063 C 318.499 264.063,318.771 263.790,318.899 263.456 C 319.056 263.047,318.975 262.942,318.648 263.133 C 318.382 263.288,318.454 263.078,318.808 262.665 C 319.749 261.568,321.094 259.051,321.094 258.387 C 321.094 258.071,321.280 257.813,321.507 257.813 C 321.735 257.813,321.812 257.637,321.680 257.422 C 321.547 257.207,321.635 257.031,321.875 257.031 C 322.115 257.031,322.223 256.887,322.114 256.711 C 322.005 256.534,322.258 255.827,322.676 255.139 C 323.095 254.450,323.438 253.628,323.438 253.311 C 323.438 252.994,323.643 252.734,323.893 252.734 C 324.144 252.734,324.238 252.623,324.102 252.488 C 323.967 252.352,324.063 251.869,324.315 251.413 C 324.568 250.958,324.738 250.454,324.692 250.293 C 324.647 250.132,324.785 250.000,325.000 250.000 C 325.215 250.000,325.353 249.868,325.308 249.707 C 325.262 249.546,325.455 248.997,325.737 248.488 C 326.165 247.715,326.163 247.613,325.723 247.872 C 325.433 248.042,325.503 247.829,325.880 247.399 C 326.256 246.968,326.447 246.499,326.303 246.355 C 326.159 246.211,326.257 246.094,326.520 246.094 C 326.784 246.094,326.890 245.917,326.756 245.700 C 326.622 245.484,326.789 245.030,327.127 244.692 C 327.465 244.354,327.635 243.905,327.504 243.694 C 327.374 243.483,327.592 242.939,327.989 242.486 C 328.468 241.940,328.513 241.774,328.125 241.992 C 327.652 242.258,327.661 242.177,328.172 241.571 C 328.520 241.158,328.725 240.601,328.627 240.332 C 328.530 240.063,328.670 239.844,328.939 239.844 C 329.207 239.844,329.311 239.728,329.170 239.587 C 329.029 239.445,329.109 239.094,329.348 238.805 C 329.587 238.517,329.630 238.279,329.442 238.275 C 329.255 238.272,329.343 238.116,329.639 237.929 C 329.934 237.742,330.176 237.129,330.176 236.568 C 330.176 236.006,330.359 235.547,330.583 235.547 C 330.806 235.547,330.874 235.431,330.733 235.290 C 330.591 235.148,330.646 234.827,330.855 234.576 C 331.064 234.324,331.287 233.781,331.351 233.368 C 331.415 232.955,331.622 232.370,331.810 232.069 C 332.051 231.681,332.011 231.607,331.672 231.816 C 331.303 232.044,331.289 231.923,331.612 231.291 C 331.842 230.839,332.207 230.120,332.422 229.693 C 332.637 229.266,332.813 228.573,332.813 228.153 C 332.812 227.733,332.991 227.279,333.209 227.144 C 333.428 227.010,333.505 226.736,333.382 226.536 C 333.258 226.336,333.294 225.952,333.462 225.684 C 333.777 225.179,333.967 224.517,334.133 223.348 C 334.186 222.976,334.338 222.564,334.470 222.431 C 334.603 222.298,334.624 221.961,334.517 221.681 C 334.410 221.401,334.502 221.061,334.722 220.925 C 334.942 220.789,335.030 220.438,334.917 220.144 C 334.805 219.851,334.907 219.490,335.146 219.343 C 335.384 219.195,335.476 218.753,335.352 218.359 C 335.227 217.966,335.308 217.531,335.532 217.392 C 335.809 217.221,335.813 216.904,335.547 216.406 C 335.272 215.892,335.289 215.589,335.606 215.393 C 335.906 215.208,335.952 215.286,335.742 215.625 C 335.526 215.975,335.578 216.042,335.909 215.838 C 336.195 215.661,336.296 215.160,336.157 214.606 C 336.028 214.092,336.084 213.672,336.282 213.672 C 336.479 213.672,336.605 213.156,336.561 212.525 C 336.518 211.893,336.594 211.446,336.731 211.531 C 336.979 211.684,337.133 210.484,337.220 207.715 C 337.246 206.909,337.377 206.250,337.511 206.250 C 337.645 206.250,337.681 205.743,337.590 205.124 C 337.499 204.505,337.599 203.891,337.811 203.760 C 338.035 203.622,338.117 202.435,338.006 200.933 C 337.901 199.509,337.964 198.436,338.146 198.549 C 338.468 198.748,338.426 186.326,338.093 182.813 C 337.866 180.416,337.597 178.320,337.516 178.320 C 337.480 178.320,337.385 177.793,337.305 177.148 C 337.225 176.504,337.063 175.537,336.946 175.000 C 336.828 174.463,336.620 173.496,336.484 172.852 C 336.348 172.207,336.130 171.504,336.001 171.289 C 335.871 171.074,335.711 170.555,335.646 170.134 C 335.581 169.714,335.347 169.258,335.126 169.122 C 334.905 168.985,334.754 168.714,334.791 168.519 C 334.828 168.324,334.824 168.076,334.783 167.969 C 334.741 167.861,334.629 167.343,334.532 166.817 C 334.435 166.291,334.070 165.544,333.719 165.157 C 333.369 164.770,333.232 164.453,333.416 164.453 C 333.600 164.453,333.539 164.242,333.281 163.984 C 333.023 163.727,332.813 163.199,332.813 162.813 C 332.813 162.426,332.626 162.109,332.399 162.109 C 332.171 162.109,332.094 161.934,332.227 161.719 C 332.359 161.504,332.271 161.328,332.031 161.328 C 331.791 161.328,331.703 161.152,331.836 160.938 C 331.969 160.723,331.903 160.547,331.689 160.547 C 331.475 160.547,331.078 159.932,330.806 159.180 C 330.534 158.428,330.054 157.813,329.739 157.813 C 329.424 157.813,329.275 157.705,329.407 157.573 C 329.658 157.321,326.668 153.031,326.073 152.791 C 325.885 152.715,325.569 152.227,325.371 151.707 C 325.174 151.187,324.737 150.656,324.401 150.527 C 324.065 150.398,323.305 149.831,322.712 149.267 C 321.204 147.833,319.922 146.841,319.922 147.109 C 319.922 147.233,319.351 146.877,318.652 146.318 C 317.954 145.758,317.207 145.163,316.992 144.994 C 316.511 144.616,315.227 144.060,314.492 143.912 C 314.191 143.852,313.820 143.599,313.667 143.352 C 313.514 143.105,313.275 142.921,313.136 142.943 C 312.996 142.966,312.359 142.714,311.719 142.383 C 311.079 142.052,310.421 141.764,310.258 141.742 C 310.095 141.721,309.535 141.541,309.015 141.344 C 308.494 141.146,307.846 141.069,307.575 141.173 C 307.304 141.277,307.025 141.193,306.956 140.986 C 306.843 140.648,304.834 140.302,301.855 140.109 C 301.265 140.070,300.781 139.933,300.781 139.803 C 300.781 139.674,297.661 139.620,293.848 139.685 C 287.669 139.789,284.961 139.953,284.961 140.223 C 284.961 140.271,284.117 140.366,283.086 140.433 C 282.055 140.501,280.912 140.683,280.547 140.837 C 280.182 140.992,279.372 141.185,278.747 141.266 C 277.426 141.437,276.471 142.118,276.687 142.734 C 276.770 142.971,276.020 144.131,275.022 145.313 C 274.023 146.494,272.609 148.252,271.881 149.219 C 267.284 155.319,263.477 159.921,260.837 162.564 C 245.228 178.200,220.976 176.875,196.484 159.048 C 185.596 151.123,167.188 132.505,167.188 129.418 C 167.187 128.788,161.574 123.047,160.959 123.047 C 160.761 123.047,160.487 122.693,160.350 122.260 C 160.212 121.827,159.937 121.574,159.738 121.697 C 159.538 121.820,159.375 121.735,159.375 121.507 C 159.375 121.280,159.155 121.138,158.887 121.191 C 158.618 121.245,158.447 121.056,158.506 120.772 C 158.565 120.487,158.444 120.359,158.237 120.487 C 158.030 120.615,157.679 120.408,157.458 120.028 C 157.236 119.647,157.050 119.489,157.043 119.677 C 157.037 119.864,156.765 119.797,156.441 119.527 C 155.196 118.495,145.072 113.281,144.311 113.281 C 144.038 113.281,143.757 113.111,143.685 112.902 C 143.613 112.694,143.115 112.474,142.578 112.414 C 142.041 112.354,141.499 112.166,141.374 111.997 C 141.249 111.827,140.633 111.651,140.007 111.606 C 139.380 111.561,138.779 111.409,138.672 111.270 C 138.564 111.130,137.510 110.895,136.328 110.747 C 135.146 110.599,133.913 110.441,133.587 110.396 C 133.261 110.351,132.750 110.164,132.452 109.980 C 132.061 109.738,131.999 109.787,132.227 110.156 C 132.456 110.528,132.392 110.574,131.994 110.326 C 131.692 110.138,130.479 109.947,129.297 109.902 C 128.115 109.857,126.508 109.731,125.724 109.622 C 124.941 109.513,124.180 109.544,124.032 109.692 M132.390 116.848 C 138.218 117.849,145.174 123.172,145.430 126.827 L 145.508 127.930 140.962 127.788 C 126.125 127.326,108.830 138.119,95.242 156.318 C 92.251 160.325,91.363 160.125,92.395 155.674 C 95.413 142.659,104.107 129.952,114.844 122.864 C 123.736 116.993,126.907 115.906,132.390 116.848 M310.943 148.465 C 329.281 153.547,335.540 176.992,328.456 214.063 C 327.820 217.393,327.051 220.996,326.748 222.070 C 326.444 223.145,325.556 226.309,324.773 229.102 C 323.991 231.895,323.087 234.883,322.764 235.742 C 322.441 236.602,321.686 238.799,321.086 240.625 C 319.652 244.989,314.566 257.081,312.460 261.133 C 309.434 266.954,307.170 271.252,306.836 271.809 C 304.663 275.434,302.734 277.743,302.734 276.719 C 302.734 276.452,306.433 267.201,307.248 265.430 C 308.990 261.643,313.532 246.754,315.053 239.844 C 317.364 229.345,318.071 224.960,318.740 216.992 C 320.125 200.474,318.260 184.523,313.410 171.390 C 311.280 165.624,305.832 155.081,304.980 155.079 C 304.819 155.078,304.684 154.858,304.679 154.590 C 304.674 154.321,304.316 153.662,303.883 153.125 C 301.871 150.627,300.733 148.737,300.931 148.221 C 301.276 147.321,307.351 147.470,310.943 148.465 M234.223 210.689 C 235.965 210.933,237.651 211.351,237.970 211.618 C 238.288 211.884,238.649 212.002,238.772 211.879 C 239.278 211.373,245.022 215.146,244.654 215.742 C 244.520 215.959,244.586 216.028,244.800 215.896 C 245.014 215.764,245.703 216.220,246.332 216.910 C 248.585 219.380,249.405 220.433,248.828 220.117 C 248.506 219.940,248.620 220.220,249.083 220.738 C 250.078 221.853,251.383 224.646,251.804 226.563 C 252.186 228.301,252.223 228.454,252.354 228.809 C 252.780 229.967,252.888 234.362,252.539 236.328 C 252.367 237.295,252.215 238.394,252.201 238.770 C 252.188 239.146,252.044 239.453,251.882 239.453 C 251.720 239.453,251.688 239.717,251.812 240.039 C 251.936 240.361,251.832 240.625,251.581 240.625 C 251.331 240.625,251.227 240.789,251.351 240.989 C 251.474 241.189,251.394 241.464,251.172 241.602 C 250.950 241.739,250.870 242.014,250.993 242.214 C 251.117 242.414,251.003 242.578,250.739 242.578 C 250.476 242.578,250.369 242.687,250.502 242.820 C 250.635 242.953,250.487 243.319,250.173 243.633 C 249.859 243.947,249.702 244.365,249.824 244.563 C 249.946 244.760,249.860 244.922,249.632 244.922 C 249.405 244.922,249.219 245.167,249.219 245.466 C 249.219 245.765,248.944 246.116,248.608 246.245 C 248.272 246.373,248.102 246.648,248.230 246.855 C 248.358 247.062,248.017 247.523,247.473 247.879 C 246.929 248.236,246.484 248.776,246.484 249.081 C 246.484 249.385,246.177 249.747,245.801 249.885 C 245.425 250.024,244.689 250.590,244.166 251.143 C 243.644 251.696,243.066 252.148,242.883 252.148 C 242.699 252.148,242.424 252.324,242.271 252.539 C 241.761 253.254,236.721 255.469,235.605 255.469 C 235.000 255.469,234.373 255.601,234.213 255.762 C 233.820 256.155,225.691 256.256,225.195 255.874 C 224.980 255.709,224.277 255.460,223.633 255.322 C 222.988 255.183,222.021 254.974,221.484 254.856 C 220.947 254.738,220.453 254.486,220.385 254.296 C 220.317 254.106,220.038 254.036,219.764 254.141 C 219.490 254.246,219.040 254.061,218.765 253.729 C 218.489 253.397,218.030 253.125,217.745 253.125 C 217.460 253.125,217.047 252.817,216.828 252.441 C 216.609 252.065,216.425 251.904,216.418 252.084 C 216.412 252.263,215.702 251.852,214.842 251.170 C 213.981 250.489,213.393 249.744,213.535 249.515 C 213.677 249.285,213.610 249.211,213.386 249.349 C 213.162 249.488,212.762 249.339,212.496 249.019 C 212.231 248.699,212.147 248.438,212.310 248.438 C 212.472 248.438,212.129 248.063,211.547 247.605 C 210.669 246.914,209.729 245.346,209.705 244.531 C 209.702 244.424,209.502 244.098,209.261 243.808 C 209.020 243.518,208.783 243.008,208.734 242.675 C 208.686 242.343,208.449 241.949,208.210 241.801 C 207.970 241.653,207.751 241.108,207.724 240.590 C 207.697 240.072,207.527 239.451,207.346 239.210 C 206.747 238.409,206.493 233.697,206.833 229.688 C 207.076 226.827,207.130 226.563,207.475 226.563 C 207.647 226.563,207.695 226.321,207.582 226.027 C 207.469 225.732,207.651 225.218,207.985 224.883 C 208.320 224.548,208.594 223.910,208.594 223.465 C 208.594 223.020,208.945 222.305,209.375 221.875 C 209.805 221.445,210.058 221.094,209.939 221.094 C 209.819 221.094,210.039 220.547,210.427 219.878 C 211.216 218.518,216.409 213.544,216.717 213.853 C 216.826 213.961,217.108 213.802,217.344 213.498 C 217.580 213.193,218.125 212.889,218.555 212.820 C 218.984 212.751,219.568 212.476,219.852 212.207 C 220.136 211.938,220.795 211.719,221.317 211.719 C 221.839 211.719,222.266 211.528,222.266 211.296 C 222.266 211.063,222.485 210.948,222.754 211.040 C 223.022 211.132,223.770 211.041,224.414 210.838 C 225.059 210.634,226.335 210.425,227.250 210.373 C 228.166 210.321,229.017 210.176,229.141 210.051 C 229.266 209.926,229.748 209.919,230.212 210.034 C 230.675 210.150,232.480 210.444,234.223 210.689 " stroke="none" fill="#4cacc4" fill-rule="evenodd"></path><path id="path2" d="M179.361 46.141 C 166.686 48.249,156.108 57.636,151.602 70.777 C 150.646 73.564,151.023 74.047,153.892 73.707 C 157.522 73.277,159.900 71.281,164.118 65.122 C 170.666 55.562,175.389 51.327,182.617 48.535 C 183.906 48.037,184.434 47.733,183.789 47.859 C 177.673 49.060,170.014 55.504,164.067 64.453 C 160.067 70.473,157.258 72.918,153.888 73.317 C 151.420 73.609,151.233 73.158,152.468 69.879 C 158.135 54.822,170.977 45.689,185.798 46.176 C 189.226 46.288,189.484 46.581,186.581 47.065 C 185.754 47.203,185.153 47.392,185.246 47.485 C 185.426 47.666,189.644 46.987,190.625 46.620 C 192.762 45.820,183.628 45.431,179.361 46.141 M268.750 69.967 C 268.750 70.208,269.092 70.314,269.513 70.204 C 269.932 70.095,270.327 70.135,270.391 70.294 C 270.564 70.722,272.656 71.164,272.656 70.772 C 272.656 70.448,270.098 69.531,269.193 69.531 C 268.949 69.531,268.750 69.728,268.750 69.967 M251.172 70.313 C 251.172 70.514,250.947 70.592,250.672 70.487 C 250.398 70.382,249.847 70.534,249.449 70.825 C 248.827 71.279,248.815 71.354,249.362 71.354 C 249.713 71.354,250.000 71.197,250.000 71.006 C 250.000 70.814,250.160 70.756,250.355 70.876 C 250.550 70.997,251.105 70.949,251.589 70.770 C 252.333 70.494,252.369 70.406,251.820 70.195 C 251.464 70.058,251.172 70.111,251.172 70.313 M275.391 72.169 C 275.391 72.330,276.223 72.901,277.240 73.438 C 278.257 73.975,280.103 75.255,281.342 76.284 C 282.580 77.312,283.594 78.052,283.594 77.929 C 283.594 77.805,283.841 77.930,284.142 78.207 C 284.444 78.484,284.664 78.816,284.631 78.944 C 284.536 79.310,287.938 82.896,288.165 82.669 C 288.277 82.557,287.884 82.016,287.291 81.467 C 286.699 80.918,286.365 80.469,286.549 80.469 C 286.734 80.469,286.027 79.598,284.978 78.533 C 283.930 77.469,282.938 76.681,282.774 76.782 C 282.610 76.883,282.234 76.622,281.939 76.201 C 281.240 75.202,277.498 72.632,277.191 72.939 C 277.060 73.070,276.953 72.962,276.953 72.698 C 276.953 72.435,276.777 72.328,276.563 72.461 C 276.348 72.594,276.172 72.516,276.172 72.289 C 276.172 72.061,275.996 71.875,275.781 71.875 C 275.566 71.875,275.391 72.007,275.391 72.169 M244.727 73.207 C 244.082 73.723,243.452 74.081,243.327 74.003 C 243.202 73.926,243.099 74.122,243.099 74.438 C 243.099 74.879,243.295 74.830,243.938 74.226 C 244.399 73.792,244.967 73.438,245.198 73.438 C 245.430 73.438,245.721 73.174,245.844 72.852 C 246.136 72.093,246.109 72.101,244.727 73.207 M241.602 75.000 C 241.469 75.215,241.502 75.403,241.676 75.418 C 241.850 75.433,241.641 75.607,241.211 75.805 C 240.486 76.139,240.484 76.158,241.174 76.071 C 241.583 76.019,241.963 75.669,242.018 75.293 C 242.130 74.529,241.965 74.412,241.602 75.000 M239.437 76.983 C 239.039 77.727,239.071 77.757,239.825 77.354 C 240.277 77.112,240.544 76.747,240.418 76.543 C 240.084 76.004,239.922 76.077,239.437 76.983 M237.123 79.271 C 236.570 80.304,236.616 80.596,237.240 80.013 C 237.526 79.745,237.760 79.299,237.760 79.021 C 237.760 78.323,237.596 78.387,237.123 79.271 M234.282 82.799 C 233.900 83.246,233.783 83.664,234.003 83.800 C 234.210 83.929,234.498 83.715,234.642 83.326 C 234.786 82.936,235.093 82.488,235.323 82.330 C 235.594 82.145,235.600 82.041,235.341 82.037 C 235.120 82.034,234.643 82.377,234.282 82.799 M289.366 85.645 C 290.159 86.987,290.944 88.145,291.109 88.217 C 291.275 88.289,291.331 88.478,291.233 88.636 C 291.135 88.795,291.415 90.054,291.855 91.435 C 293.048 95.176,293.164 96.155,293.164 102.442 C 293.164 105.611,293.316 108.203,293.503 108.203 C 293.689 108.203,293.749 107.852,293.637 107.422 C 293.525 106.993,293.592 106.543,293.787 106.423 C 294.830 105.778,293.718 92.593,292.495 91.113 C 292.273 90.845,292.207 90.625,292.349 90.625 C 292.490 90.625,292.388 90.229,292.122 89.746 C 291.857 89.263,291.596 88.607,291.544 88.288 C 291.492 87.970,291.262 87.647,291.034 87.571 C 290.807 87.495,290.719 87.273,290.841 87.076 C 290.962 86.880,290.865 86.719,290.625 86.719 C 290.385 86.719,290.297 86.543,290.430 86.328 C 290.562 86.113,290.485 85.938,290.257 85.938 C 290.030 85.938,289.888 85.802,289.941 85.637 C 290.049 85.306,288.496 83.203,288.144 83.203 C 288.023 83.203,288.573 84.302,289.366 85.645 M220.920 87.370 C 220.573 87.764,219.232 89.441,217.938 91.098 C 202.863 110.405,175.342 114.470,154.337 100.494 C 150.226 97.758,148.990 97.581,150.904 100.000 C 151.876 101.229,152.985 101.893,152.227 100.792 C 151.062 99.098,151.488 99.188,154.819 101.337 C 176.122 115.080,203.450 110.609,218.645 90.894 C 220.574 88.392,220.955 88.282,220.371 90.397 C 220.145 91.217,220.133 91.712,220.343 91.583 C 220.541 91.460,220.703 91.107,220.703 90.797 C 220.703 90.488,220.887 90.234,221.111 90.234 C 221.335 90.234,221.482 90.015,221.438 89.746 C 221.393 89.478,221.495 88.766,221.663 88.165 C 222.050 86.784,221.733 86.445,220.920 87.370 M230.257 90.527 C 230.133 91.118,229.882 91.881,229.700 92.222 C 229.508 92.582,229.533 93.075,229.760 93.394 C 230.071 93.831,230.106 93.803,229.932 93.262 C 229.811 92.886,229.863 92.578,230.048 92.578 C 230.233 92.578,230.490 92.155,230.620 91.638 C 230.750 91.121,230.963 90.418,231.095 90.075 C 231.226 89.733,231.142 89.453,230.909 89.453 C 230.675 89.453,230.382 89.937,230.257 90.527 M291.903 111.230 C 291.319 113.091,291.198 113.982,291.493 114.258 C 291.780 114.525,291.825 114.495,291.636 114.160 C 291.484 113.891,291.565 113.672,291.816 113.672 C 292.066 113.672,292.170 113.408,292.046 113.086 C 291.923 112.764,291.964 112.500,292.138 112.500 C 292.447 112.500,293.359 109.914,293.359 109.037 C 293.359 107.802,292.639 108.888,291.903 111.230 M117.405 110.510 C 117.285 110.705,116.808 110.765,116.345 110.644 C 115.747 110.488,115.588 110.562,115.796 110.899 C 115.987 111.208,116.520 111.282,117.322 111.110 C 118.251 110.911,117.690 111.423,115.039 113.190 C 88.907 130.612,75.925 170.815,82.467 214.063 C 86.723 242.203,98.911 270.079,118.504 296.484 C 127.248 308.270,137.331 319.450,150.074 331.493 C 152.928 334.190,154.122 335.565,153.848 335.839 C 153.574 336.113,153.601 336.335,153.933 336.540 C 154.234 336.726,154.319 336.679,154.156 336.415 C 154.011 336.182,154.072 335.881,154.291 335.746 C 154.513 335.609,154.688 335.873,154.688 336.347 C 154.688 336.951,154.861 337.126,155.294 336.960 C 155.627 336.832,155.808 336.876,155.697 337.057 C 155.585 337.238,155.931 337.585,156.466 337.829 L 157.438 338.272 156.642 337.195 C 156.204 336.602,154.561 335.006,152.991 333.647 C 144.693 326.465,129.857 310.504,121.687 299.969 C 80.922 247.406,69.795 184.700,93.170 139.258 C 99.499 126.952,111.624 113.785,118.690 111.542 C 119.718 111.216,119.583 110.156,118.513 110.156 C 118.024 110.156,117.526 110.316,117.405 110.510 M125.172 117.718 C 110.163 123.298,97.224 138.245,92.956 154.932 C 91.949 158.870,92.396 159.176,94.758 156.167 C 109.532 137.338,124.757 127.568,139.355 127.547 C 145.732 127.538,145.994 127.351,143.797 124.375 C 139.263 118.233,131.372 115.412,125.172 117.718 M192.383 117.201 C 191.560 117.380,191.385 117.533,191.797 117.716 C 192.119 117.859,193.174 117.734,194.141 117.437 C 196.069 116.846,194.803 116.676,192.383 117.201 M288.572 118.636 C 287.518 120.423,287.310 121.347,288.113 120.681 C 288.416 120.429,288.567 120.068,288.449 119.878 C 288.331 119.687,288.383 119.531,288.565 119.531 C 288.746 119.531,289.206 119.004,289.586 118.359 C 289.990 117.676,290.101 117.188,289.853 117.188 C 289.618 117.188,289.042 117.839,288.572 118.636 M135.938 118.686 C 139.434 120.053,144.531 124.724,144.531 126.563 C 144.531 126.731,141.938 126.947,138.770 127.043 C 124.413 127.479,109.406 137.083,95.114 154.982 C 92.699 158.006,92.501 157.480,94.155 152.435 C 99.334 136.630,110.203 124.520,124.805 118.282 C 127.045 117.326,133.010 117.542,135.938 118.686 M189.593 117.849 C 190.037 118.292,191.478 118.400,191.212 117.970 C 191.078 117.754,190.599 117.578,190.146 117.578 C 189.693 117.578,189.445 117.700,189.593 117.849 M179.956 118.244 C 179.851 118.415,181.769 118.557,184.218 118.560 C 186.668 118.563,188.672 118.452,188.672 118.312 C 188.672 117.943,180.181 117.876,179.956 118.244 M237.109 123.047 C 237.432 123.255,237.520 123.431,237.305 123.438 C 237.090 123.444,237.178 123.620,237.500 123.828 C 238.470 124.455,238.706 124.268,237.995 123.438 C 237.627 123.008,237.146 122.659,236.925 122.662 C 236.704 122.666,236.787 122.839,237.109 123.047 M283.874 124.601 C 281.398 127.161,281.521 127.449,284.037 124.985 C 285.140 123.905,285.969 122.948,285.879 122.859 C 285.790 122.769,284.887 123.553,283.874 124.601 M246.307 130.440 C 246.184 130.640,246.450 130.920,246.899 131.062 C 248.007 131.414,248.302 131.023,247.323 130.499 C 246.847 130.245,246.442 130.221,246.307 130.440 M170.147 132.764 C 170.031 132.952,171.444 134.842,173.288 136.963 C 187.317 153.108,203.675 165.355,217.255 169.879 C 222.325 171.568,222.542 171.364,217.578 169.576 C 203.699 164.578,190.058 154.679,176.083 139.466 C 173.370 136.512,172.348 134.937,174.074 136.370 C 174.435 136.669,174.834 136.870,174.962 136.816 C 175.090 136.763,175.195 136.886,175.195 137.090 C 175.195 137.698,176.059 138.389,176.311 137.981 C 176.436 137.779,176.104 137.206,175.574 136.707 C 175.043 136.209,174.609 135.933,174.609 136.095 C 174.609 136.256,173.797 135.496,172.804 134.405 C 170.990 132.412,170.538 132.132,170.147 132.764 M260.066 134.267 C 260.768 134.354,261.822 134.353,262.409 134.263 C 262.996 134.174,262.422 134.103,261.133 134.105 C 259.844 134.108,259.363 134.181,260.066 134.267 M76.563 140.801 C 76.563 141.112,76.276 141.528,75.926 141.723 C 75.577 141.919,75.456 142.182,75.659 142.308 C 75.862 142.433,76.334 142.018,76.708 141.385 C 77.086 140.745,77.205 140.234,76.975 140.234 C 76.748 140.234,76.563 140.489,76.563 140.801 M273.438 142.537 C 271.887 143.016,271.479 143.273,271.973 143.463 C 272.349 143.607,272.656 143.584,272.656 143.410 C 272.656 143.237,273.285 143.072,274.052 143.043 C 275.722 142.980,275.774 142.824,272.852 146.638 C 258.728 165.071,254.538 168.630,243.532 171.538 C 239.211 172.680,230.312 172.777,225.223 171.737 C 223.519 171.389,222.056 171.173,221.973 171.256 C 221.289 171.940,231.642 173.166,236.298 172.952 C 250.286 172.312,257.810 167.196,271.630 148.932 C 273.944 145.873,275.992 143.275,276.183 143.157 C 276.555 142.927,276.253 141.772,275.837 141.835 C 275.699 141.856,274.619 142.172,273.438 142.537 M269.377 144.207 C 269.567 144.515,269.374 144.581,268.755 144.419 C 268.096 144.247,267.972 144.300,268.290 144.618 C 268.589 144.917,268.995 144.932,269.591 144.666 C 270.360 144.323,270.381 144.250,269.778 144.019 C 269.323 143.845,269.191 143.906,269.377 144.207 M301.172 148.480 C 301.172 148.718,302.284 150.432,303.643 152.289 C 323.717 179.714,324.804 222.719,306.568 268.102 C 303.962 274.590,303.889 275.475,306.262 271.822 C 316.491 256.082,326.699 226.160,330.165 201.758 C 330.955 196.193,330.819 178.851,329.949 174.219 C 327.245 159.831,320.402 150.990,310.168 148.662 C 307.001 147.942,301.172 147.824,301.172 148.480 M309.206 148.865 C 336.721 153.942,337.620 208.740,311.061 261.914 C 306.566 270.912,305.073 272.995,307.582 266.767 C 325.121 223.229,323.912 179.721,304.412 152.640 C 303.060 150.762,301.953 149.048,301.953 148.831 C 301.953 148.307,306.288 148.327,309.206 148.865 M218.535 155.911 C 217.918 156.163,217.974 156.203,218.833 156.121 C 219.416 156.065,219.987 155.925,220.102 155.809 C 220.420 155.491,219.398 155.557,218.535 155.911 M63.854 172.392 C 63.967 172.783,63.864 173.486,63.625 173.954 C 63.212 174.762,63.225 174.772,63.889 174.138 C 64.473 173.580,64.511 173.324,64.118 172.575 C 63.856 172.077,63.739 171.995,63.854 172.392 M62.175 182.976 C 62.227 183.745,62.409 184.375,62.580 184.375 C 63.041 184.375,62.957 182.118,62.486 181.827 C 62.229 181.668,62.115 182.090,62.175 182.976 M61.952 188.281 C 62.094 189.893,62.287 191.295,62.379 191.397 C 62.707 191.761,62.372 186.364,62.035 185.862 C 61.834 185.563,61.800 186.564,61.952 188.281 M61.435 195.703 C 61.435 196.670,61.511 197.065,61.604 196.582 C 61.697 196.099,61.697 195.308,61.604 194.824 C 61.511 194.341,61.435 194.736,61.435 195.703 M62.178 201.628 C 62.140 202.416,61.996 203.383,61.857 203.777 C 61.664 204.322,61.716 204.389,62.077 204.057 C 62.361 203.796,62.489 202.936,62.398 201.909 C 62.254 200.291,62.242 200.276,62.178 201.628 M62.530 206.836 C 62.481 207.266,62.369 208.057,62.281 208.594 C 62.143 209.428,62.179 209.469,62.530 208.877 C 62.756 208.495,62.868 207.704,62.779 207.119 C 62.665 206.372,62.591 206.288,62.530 206.836 M69.743 241.380 C 69.601 241.609,69.666 241.797,69.887 241.797 C 70.107 241.797,70.198 242.031,70.088 242.318 C 69.977 242.608,70.146 242.839,70.470 242.839 C 70.934 242.839,70.966 242.674,70.629 242.025 C 70.055 240.920,70.036 240.906,69.743 241.380 M76.430 257.204 C 76.290 257.568,76.511 257.967,76.997 258.227 C 77.739 258.624,77.761 258.590,77.320 257.744 C 76.683 256.520,76.691 256.525,76.430 257.204 " stroke="none" fill="#83bfd2" fill-rule="evenodd"></path><path id="path3" d="M190.337 45.954 C 190.715 46.063,190.911 46.338,190.771 46.565 C 190.631 46.791,190.730 46.905,190.991 46.818 C 191.852 46.531,191.619 45.900,190.625 45.826 C 190.051 45.784,189.932 45.836,190.337 45.954 M304.879 273.834 C 304.744 274.053,304.470 274.130,304.270 274.007 C 304.070 273.883,303.906 273.859,303.906 273.953 C 303.906 274.047,303.633 274.778,303.298 275.578 C 302.466 277.569,303.331 277.222,304.533 275.082 C 305.321 273.680,305.602 272.664,304.879 273.834 " stroke="none" fill="#61bccd" fill-rule="evenodd"></path><path id="path4" d="M181.750 42.084 C 182.777 42.165,184.359 42.164,185.266 42.082 C 186.172 42.000,185.332 41.934,183.398 41.936 C 181.465 41.937,180.723 42.004,181.750 42.084 M197.754 44.497 C 198.560 44.874,199.140 45.261,199.042 45.359 C 198.945 45.456,199.209 45.536,199.628 45.536 C 200.753 45.536,200.583 45.367,198.600 44.517 C 196.396 43.573,195.741 43.557,197.754 44.497 M183.301 45.601 C 184.536 45.679,186.558 45.679,187.793 45.601 C 189.028 45.524,188.018 45.460,185.547 45.460 C 183.076 45.460,182.065 45.524,183.301 45.601 M176.758 46.279 C 175.684 46.549,174.189 47.059,173.438 47.414 C 172.686 47.768,172.422 47.951,172.852 47.820 C 173.281 47.689,175.215 47.168,177.148 46.662 C 179.082 46.156,180.225 45.752,179.688 45.766 C 179.150 45.779,177.832 46.010,176.758 46.279 M183.003 48.411 C 180.862 49.173,177.734 50.694,177.734 50.972 C 177.734 51.212,178.862 50.766,180.273 49.968 C 180.918 49.604,182.368 49.009,183.496 48.645 C 184.624 48.282,185.547 47.910,185.547 47.820 C 185.547 47.561,185.095 47.666,183.003 48.411 M206.093 48.984 C 206.209 49.285,206.643 49.621,207.058 49.730 C 208.061 49.992,208.009 49.828,206.848 49.067 C 206.092 48.572,205.929 48.554,206.093 48.984 M169.141 49.115 C 166.644 50.077,158.188 56.982,158.211 58.041 C 158.215 58.238,159.057 57.520,160.082 56.445 C 162.568 53.840,164.954 51.943,167.676 50.410 C 168.911 49.714,169.922 49.073,169.922 48.986 C 169.922 48.809,169.946 48.805,169.141 49.115 M209.070 51.393 C 209.655 52.001,210.224 52.407,210.335 52.295 C 210.446 52.184,209.968 51.687,209.273 51.191 L 208.008 50.288 209.070 51.393 M176.117 51.975 C 175.244 52.736,175.240 52.757,176.052 52.364 C 176.524 52.136,177.018 51.774,177.150 51.560 C 177.534 50.939,177.113 51.108,176.117 51.975 M211.495 53.819 C 212.124 54.507,212.716 54.992,212.811 54.897 C 212.999 54.709,212.356 54.037,211.131 53.140 C 210.702 52.826,210.866 53.132,211.495 53.819 M170.435 56.866 C 169.186 58.279,167.151 60.872,165.913 62.628 C 161.717 68.579,159.575 71.144,157.843 72.292 C 156.785 72.994,156.383 73.438,156.805 73.438 C 157.686 73.438,161.988 69.147,163.715 66.547 C 167.079 61.480,168.264 59.896,170.571 57.382 C 172.879 54.867,173.305 54.297,172.877 54.297 C 172.783 54.297,171.685 55.453,170.435 56.866 M213.960 56.445 C 215.611 58.739,216.961 60.109,215.577 58.088 C 214.872 57.058,214.030 56.003,213.706 55.744 C 213.382 55.485,213.496 55.801,213.960 56.445 M157.421 58.887 C 157.421 59.048,156.981 59.691,156.443 60.317 C 155.905 60.943,155.554 61.543,155.662 61.652 C 155.771 61.760,155.910 61.776,155.973 61.686 C 156.035 61.597,156.572 60.864,157.165 60.059 C 157.758 59.253,158.058 58.594,157.832 58.594 C 157.607 58.594,157.422 58.726,157.421 58.887 M154.388 63.678 C 153.170 65.794,153.298 66.195,154.534 64.133 C 155.090 63.205,155.481 62.382,155.403 62.304 C 155.325 62.226,154.868 62.844,154.388 63.678 M152.795 66.699 C 152.132 67.964,150.338 73.246,150.705 72.852 C 150.905 72.637,151.337 71.670,151.667 70.703 C 151.996 69.736,152.549 68.286,152.896 67.480 C 153.532 66.003,153.458 65.432,152.795 66.699 M153.125 73.828 L 151.367 74.101 153.125 74.154 C 154.092 74.183,155.146 74.036,155.469 73.828 C 156.157 73.383,155.985 73.383,153.125 73.828 M221.713 85.846 C 221.556 86.332,221.272 86.634,221.082 86.516 C 220.892 86.399,220.474 86.810,220.154 87.429 C 217.673 92.227,209.137 99.946,202.832 103.093 C 201.919 103.549,201.172 104.009,201.172 104.115 C 201.172 104.221,202.271 103.755,203.613 103.078 C 208.719 100.505,214.133 95.976,217.932 91.098 C 219.223 89.441,220.746 87.621,221.318 87.053 C 221.890 86.485,222.277 85.782,222.178 85.490 C 222.061 85.149,221.896 85.275,221.713 85.846 M149.741 97.854 C 150.092 98.110,150.249 98.476,150.092 98.667 C 149.934 98.859,150.230 98.665,150.751 98.238 C 151.271 97.811,151.576 97.668,151.429 97.921 C 150.653 99.252,166.510 107.605,168.499 106.913 C 168.745 106.828,168.330 106.622,167.578 106.455 C 163.485 105.550,152.456 99.642,153.016 98.655 C 153.145 98.428,153.106 98.373,152.930 98.533 C 152.753 98.692,152.372 98.485,152.082 98.071 C 151.740 97.582,151.125 97.330,150.330 97.353 C 149.282 97.383,149.197 97.455,149.741 97.854 M198.242 105.294 C 197.168 105.827,196.729 106.150,197.266 106.011 C 198.426 105.713,201.148 104.333,200.586 104.328 C 200.371 104.326,199.316 104.761,198.242 105.294 M194.141 106.641 C 193.356 106.892,193.317 106.956,193.945 106.965 C 194.375 106.971,195.078 106.825,195.508 106.641 C 196.503 106.213,195.476 106.213,194.141 106.641 M169.922 107.422 C 170.244 107.630,170.947 107.786,171.484 107.768 L 172.461 107.735 171.484 107.422 C 169.979 106.940,169.176 106.940,169.922 107.422 M189.648 107.689 C 187.191 108.271,177.386 108.516,174.219 108.074 C 172.886 107.888,172.723 107.914,173.548 108.181 C 176.939 109.279,187.279 108.962,191.512 107.629 C 193.669 106.950,192.624 106.983,189.648 107.689 M119.582 110.290 C 119.343 110.578,119.263 110.930,119.404 111.071 C 119.546 111.212,119.456 111.328,119.206 111.328 C 118.955 111.328,118.750 111.508,118.750 111.728 C 118.750 111.948,119.188 111.840,119.723 111.490 C 120.258 111.139,120.606 110.706,120.496 110.528 C 120.386 110.350,120.959 110.135,121.769 110.051 L 123.242 109.897 121.630 109.831 C 120.684 109.793,119.838 109.982,119.582 110.290 M115.686 113.273 C 114.363 114.127,113.281 114.940,113.281 115.078 C 113.281 115.217,113.677 115.045,114.160 114.697 C 114.644 114.349,115.686 113.715,116.477 113.288 C 117.720 112.617,118.733 111.719,118.248 111.719 C 118.161 111.719,117.008 112.418,115.686 113.273 M149.023 115.290 C 150.742 116.158,152.811 117.318,153.620 117.867 C 154.430 118.417,155.185 118.773,155.298 118.660 C 155.625 118.333,147.028 113.638,146.201 113.691 C 146.035 113.702,147.305 114.421,149.023 115.290 M111.049 116.477 C 108.526 118.598,103.889 123.184,103.025 124.414 C 102.572 125.059,103.861 123.916,105.889 121.875 C 107.918 119.834,110.367 117.510,111.332 116.711 C 112.297 115.911,112.960 115.252,112.807 115.246 C 112.653 115.239,111.862 115.794,111.049 116.477 M125.302 117.202 C 123.134 117.948,122.430 118.295,118.066 120.770 C 114.593 122.739,115.801 122.409,119.639 120.340 C 124.000 117.989,126.062 117.203,128.906 116.807 L 131.055 116.509 129.297 116.471 C 128.330 116.450,126.532 116.779,125.302 117.202 M133.203 117.370 C 135.671 118.020,136.383 118.091,135.547 117.603 C 135.225 117.415,134.082 117.159,133.008 117.033 L 131.055 116.804 133.203 117.370 M141.784 122.011 C 142.958 123.225,143.974 124.219,144.041 124.219 C 144.440 124.219,142.176 121.667,141.023 120.817 C 139.993 120.058,140.183 120.357,141.784 122.011 M160.393 122.428 C 160.524 122.768,160.785 123.047,160.974 123.047 C 161.569 123.047,167.188 128.793,167.188 129.401 C 167.188 130.082,172.184 136.719,172.697 136.719 C 172.889 136.719,173.047 136.941,173.047 137.213 C 173.047 138.328,191.699 156.250,192.859 156.250 C 193.173 156.250,193.562 156.610,187.695 151.463 C 179.877 144.602,169.521 133.448,170.272 132.696 C 170.675 132.294,168.837 130.193,168.247 130.381 C 168.062 130.440,168.024 130.304,168.163 130.079 C 168.302 129.854,167.217 128.426,165.751 126.904 C 162.671 123.707,160.041 121.510,160.393 122.428 M112.880 124.179 C 110.258 126.117,104.755 131.274,106.082 130.551 C 106.497 130.325,107.539 129.410,108.398 128.518 C 109.258 127.626,111.191 125.996,112.695 124.896 C 114.199 123.796,115.503 122.841,115.592 122.776 C 115.682 122.710,115.677 122.578,115.582 122.483 C 115.487 122.388,114.271 123.151,112.880 124.179 M144.712 125.586 C 145.251 127.007,145.128 127.482,144.141 127.784 C 143.224 128.065,143.236 128.078,144.336 128.006 C 145.596 127.924,145.934 126.199,144.880 125.230 C 144.529 124.908,144.488 124.995,144.712 125.586 M137.415 127.632 C 138.551 127.711,140.308 127.711,141.322 127.630 C 142.335 127.550,141.406 127.485,139.258 127.486 C 137.109 127.487,136.280 127.553,137.415 127.632 M99.127 129.395 C 96.950 132.143,91.781 141.062,91.806 142.027 C 91.811 142.223,92.538 141.064,93.422 139.453 C 95.738 135.229,98.400 130.889,99.711 129.199 C 100.336 128.394,100.756 127.734,100.645 127.734 C 100.534 127.734,99.851 128.481,99.127 129.395 M132.422 128.145 C 132.002 128.431,132.279 128.470,133.398 128.283 C 135.336 127.959,135.648 127.732,134.147 127.740 C 133.521 127.744,132.744 127.926,132.422 128.145 M125.098 130.480 C 123.755 131.098,122.656 131.698,122.656 131.813 C 122.656 132.023,126.320 130.485,127.619 129.729 C 128.995 128.928,127.497 129.374,125.098 130.480 M104.618 131.772 C 102.724 133.686,96.390 143.359,97.031 143.359 C 97.142 143.359,97.704 142.524,98.281 141.504 C 99.757 138.892,102.218 135.286,104.014 133.105 C 105.435 131.380,105.797 130.580,104.618 131.772 M119.043 133.618 C 117.593 134.488,116.406 135.292,116.406 135.405 C 116.406 135.518,116.978 135.262,117.676 134.836 C 118.374 134.410,119.648 133.674,120.508 133.200 C 122.299 132.212,122.537 132.030,122.038 132.033 C 121.841 132.035,120.493 132.747,119.043 133.618 M114.182 136.950 L 113.086 137.962 114.453 137.076 C 116.233 135.923,116.217 135.938,115.712 135.938 C 115.473 135.938,114.785 136.393,114.182 136.950 M110.920 139.382 C 108.810 140.979,106.784 142.965,107.264 142.967 C 107.499 142.968,108.026 142.592,108.436 142.131 C 108.845 141.670,110.030 140.615,111.070 139.787 C 113.194 138.096,113.068 137.757,110.920 139.382 M90.078 145.686 C 88.823 148.483,86.316 155.673,86.358 156.354 C 86.374 156.619,87.051 154.902,87.862 152.539 C 88.672 150.176,89.809 147.210,90.388 145.948 C 90.966 144.686,91.370 143.584,91.285 143.498 C 91.199 143.413,90.656 144.398,90.078 145.686 M105.078 144.665 C 101.040 148.501,92.650 158.405,93.077 158.832 C 93.168 158.923,94.130 157.808,95.214 156.354 C 97.825 152.854,99.298 151.155,103.852 146.387 C 106.857 143.241,107.443 142.419,105.078 144.665 M95.726 145.806 C 94.638 148.279,93.313 152.037,93.473 152.197 C 93.537 152.261,94.330 150.446,95.234 148.164 C 96.955 143.824,97.277 142.283,95.726 145.806 M274.344 145.410 C 273.909 145.894,271.956 148.398,270.005 150.977 C 268.054 153.555,265.992 156.279,265.422 157.031 C 264.510 158.237,264.557 158.214,265.821 156.836 C 267.012 155.537,273.026 147.918,274.950 145.269 C 275.688 144.253,275.307 144.341,274.344 145.410 M300.931 148.221 C 300.733 148.737,301.871 150.627,303.883 153.125 C 304.316 153.662,304.674 154.321,304.679 154.590 C 304.684 154.858,304.874 155.078,305.101 155.078 C 305.616 155.078,305.419 154.734,303.064 151.515 C 300.390 147.858,300.353 147.905,305.762 148.124 C 308.286 148.227,309.912 148.181,309.375 148.023 C 307.458 147.456,301.167 147.604,300.931 148.221 M311.133 148.828 C 311.563 149.013,312.178 149.164,312.500 149.164 C 312.869 149.164,312.797 149.040,312.305 148.828 C 311.875 148.643,311.260 148.492,310.938 148.492 C 310.568 148.492,310.640 148.617,311.133 148.828 M313.281 149.396 C 313.281 149.493,314.102 149.936,315.106 150.380 C 316.771 151.116,319.118 152.818,321.298 154.869 C 322.591 156.085,325.262 160.171,326.577 162.944 C 327.226 164.311,327.644 164.990,327.506 164.453 C 326.732 161.432,323.371 156.201,320.545 153.617 C 318.247 151.517,313.281 148.631,313.281 149.396 M92.773 153.906 C 92.625 154.582,92.585 155.215,92.685 155.315 C 92.784 155.414,92.978 154.934,93.115 154.248 C 93.441 152.620,93.125 152.304,92.773 153.906 M328.516 155.859 C 328.975 156.504,329.438 157.031,329.545 157.031 C 329.653 157.031,329.365 156.504,328.906 155.859 C 328.447 155.215,327.984 154.688,327.876 154.688 C 327.769 154.688,328.057 155.215,328.516 155.859 M306.179 156.451 C 306.605 157.098,308.131 159.911,309.571 162.701 C 311.011 165.491,312.064 167.334,311.912 166.797 C 311.474 165.247,307.360 157.544,306.335 156.354 L 305.404 155.273 306.179 156.451 M92.041 157.080 C 91.715 158.708,92.031 159.024,92.383 157.422 C 92.531 156.747,92.571 156.113,92.472 156.013 C 92.372 155.914,92.178 156.394,92.041 157.080 M193.372 156.543 C 193.378 156.704,193.862 157.177,194.446 157.593 C 195.030 158.009,196.079 158.777,196.777 159.299 C 199.026 160.981,198.127 159.953,195.703 158.071 C 194.414 157.070,193.365 156.382,193.372 156.543 M85.547 158.594 C 85.304 159.496,85.181 160.312,85.275 160.405 C 85.368 160.498,85.635 159.827,85.866 158.913 C 86.098 157.999,86.221 157.184,86.139 157.102 C 86.056 157.020,85.790 157.691,85.547 158.594 M199.389 161.080 C 200.796 162.282,208.936 166.976,209.184 166.728 C 209.282 166.629,208.267 165.965,206.927 165.251 C 205.588 164.537,203.350 163.222,201.953 162.327 C 198.618 160.192,197.995 159.888,199.389 161.080 M260.683 162.226 C 258.242 164.724,254.728 167.328,251.456 169.065 C 249.123 170.305,249.732 170.451,252.148 169.232 C 255.140 167.722,261.687 162.457,262.529 160.884 C 263.103 159.812,262.898 159.960,260.683 162.226 M84.180 164.063 C 83.787 165.782,83.552 167.276,83.659 167.383 C 83.765 167.489,84.158 166.153,84.531 164.414 C 84.905 162.675,85.139 161.181,85.052 161.094 C 84.965 161.007,84.572 162.343,84.180 164.063 M327.927 166.211 C 328.790 168.893,329.740 172.963,330.251 176.172 C 330.840 179.863,330.842 179.868,330.625 176.980 C 330.395 173.905,328.868 167.288,328.121 166.123 C 327.715 165.492,327.698 165.499,327.927 166.211 M82.880 170.457 C 82.402 173.047,82.295 174.476,82.601 174.170 C 82.862 173.909,83.693 168.329,83.500 168.136 C 83.411 168.046,83.131 169.091,82.880 170.457 M212.333 168.310 C 212.772 168.790,219.260 171.110,220.050 171.071 C 220.302 171.058,218.926 170.470,216.992 169.765 C 215.059 169.059,213.125 168.341,212.695 168.168 C 212.110 167.932,212.019 167.968,212.333 168.310 M313.280 171.084 C 314.406 174.144,314.844 175.101,314.844 174.502 C 314.844 173.959,312.778 168.523,312.435 168.164 C 312.230 167.949,312.610 169.263,313.280 171.084 M244.558 171.607 C 242.961 172.051,241.866 172.484,242.125 172.570 C 242.627 172.738,248.047 171.197,248.047 170.887 C 248.047 170.645,247.944 170.666,244.558 171.607 M222.656 171.859 C 223.838 172.271,225.332 172.601,225.977 172.592 C 226.799 172.581,226.507 172.429,225.000 172.083 C 220.935 171.151,220.513 171.111,222.656 171.859 M228.032 172.933 C 228.518 173.026,229.221 173.022,229.594 172.925 C 229.968 172.827,229.570 172.750,228.711 172.755 C 227.852 172.759,227.546 172.839,228.032 172.933 M234.766 173.047 L 230.273 173.282 234.766 173.313 C 237.236 173.331,239.785 173.211,240.430 173.047 L 241.602 172.749 240.430 172.780 C 239.785 172.798,237.236 172.918,234.766 173.047 M82.138 176.172 C 82.138 177.139,82.214 177.534,82.307 177.051 C 82.400 176.567,82.400 175.776,82.307 175.293 C 82.214 174.810,82.138 175.205,82.138 176.172 M315.273 176.611 C 315.252 176.960,315.472 177.927,315.763 178.759 C 316.054 179.592,316.514 181.468,316.787 182.928 C 317.060 184.388,317.365 185.500,317.465 185.399 C 317.690 185.175,316.643 180.129,315.875 177.734 C 315.565 176.768,315.294 176.262,315.273 176.611 M81.758 180.078 C 81.758 181.260,81.831 181.743,81.920 181.152 C 82.010 180.562,82.010 179.595,81.920 179.004 C 81.831 178.413,81.758 178.896,81.758 180.078 M331.025 188.086 C 331.025 192.598,331.082 194.390,331.151 192.069 C 331.220 189.747,331.220 186.056,331.151 183.865 C 331.081 181.675,331.024 183.574,331.025 188.086 M81.414 190.820 C 81.414 195.117,81.471 196.928,81.541 194.845 C 81.611 192.762,81.611 189.246,81.542 187.032 C 81.472 184.819,81.414 186.523,81.414 190.820 M317.669 186.914 C 317.670 187.559,317.805 188.613,317.969 189.258 C 318.382 190.882,318.400 189.283,317.991 187.305 C 317.719 185.991,317.668 185.929,317.669 186.914 M338.432 192.578 C 338.432 195.264,338.494 196.362,338.570 195.020 C 338.647 193.677,338.647 191.479,338.570 190.137 C 338.494 188.794,338.432 189.893,338.432 192.578 M318.867 196.484 C 318.867 197.666,318.940 198.149,319.030 197.559 C 319.119 196.968,319.119 196.001,319.030 195.410 C 318.940 194.819,318.867 195.303,318.867 196.484 M330.580 198.633 C 330.583 199.707,330.659 200.100,330.749 199.506 C 330.839 198.913,330.836 198.034,330.744 197.553 C 330.651 197.073,330.578 197.559,330.580 198.633 M338.046 198.596 C 337.930 198.897,337.897 199.732,337.972 200.451 C 338.092 201.597,338.132 201.529,338.295 199.902 C 338.487 198.000,338.417 197.630,338.046 198.596 M319.301 205.859 C 319.301 209.619,319.360 211.157,319.431 209.277 C 319.503 207.397,319.503 204.321,319.431 202.441 C 319.360 200.562,319.301 202.100,319.301 205.859 M329.948 203.093 C 329.804 204.471,329.760 205.671,329.850 205.761 C 330.091 206.003,330.581 201.705,330.381 201.103 C 330.287 200.821,330.092 201.716,329.948 203.093 M81.866 205.052 C 82.026 208.712,82.200 209.835,82.531 209.342 C 82.591 209.253,82.426 207.334,82.164 205.078 L 81.688 200.977 81.866 205.052 M328.906 209.570 C 328.629 211.191,328.490 212.605,328.598 212.712 C 328.705 212.820,329.020 211.582,329.297 209.961 C 329.574 208.340,329.713 206.927,329.606 206.819 C 329.498 206.712,329.183 207.950,328.906 209.570 M238.281 211.465 C 238.281 211.548,239.468 212.298,240.918 213.132 C 242.368 213.966,244.873 215.967,246.484 217.578 C 248.972 220.065,249.143 220.183,247.617 218.359 C 245.253 215.533,238.281 210.385,238.281 211.465 M327.734 215.820 C 327.467 217.236,327.326 218.472,327.421 218.567 C 327.516 218.662,327.822 217.590,328.101 216.187 C 328.380 214.783,328.521 213.547,328.414 213.440 C 328.307 213.333,328.002 214.405,327.734 215.820 M213.826 216.159 C 212.345 217.536,210.815 219.253,210.427 219.976 C 209.746 221.243,209.746 221.256,210.427 220.345 C 211.454 218.972,214.469 215.916,215.782 214.915 C 216.406 214.440,216.827 213.962,216.718 213.853 C 216.609 213.744,215.308 214.782,213.826 216.159 M318.875 216.406 C 318.875 217.803,318.946 218.374,319.033 217.676 C 319.119 216.978,319.119 215.835,319.033 215.137 C 318.946 214.438,318.875 215.010,318.875 216.406 M83.245 215.398 C 83.187 216.437,84.076 221.379,84.236 220.898 C 84.307 220.684,84.123 219.189,83.826 217.578 C 83.530 215.967,83.269 214.986,83.245 215.398 M318.458 220.508 C 318.462 221.367,318.542 221.673,318.636 221.187 C 318.729 220.701,318.726 219.998,318.628 219.624 C 318.530 219.251,318.454 219.648,318.458 220.508 M326.563 221.094 C 325.987 223.231,326.292 223.536,326.918 221.449 C 327.182 220.567,327.309 219.757,327.201 219.649 C 327.093 219.541,326.806 220.191,326.563 221.094 M249.881 222.456 C 250.238 223.205,250.600 223.749,250.685 223.664 C 250.863 223.486,249.678 221.094,249.410 221.094 C 249.312 221.094,249.524 221.707,249.881 222.456 M84.407 222.070 C 84.398 222.500,84.643 223.730,84.953 224.805 L 85.516 226.758 85.282 224.805 C 85.153 223.730,84.908 222.500,84.736 222.070 L 84.425 221.289 84.407 222.070 M317.669 226.953 C 317.669 227.705,317.749 228.013,317.847 227.637 C 317.946 227.261,317.946 226.646,317.847 226.270 C 317.749 225.894,317.669 226.201,317.669 226.953 M325.280 226.048 C 325.177 226.224,324.984 226.982,324.852 227.734 L 324.612 229.102 325.198 227.573 C 325.720 226.212,325.774 225.213,325.280 226.048 M85.576 227.148 C 85.512 227.780,87.250 234.148,87.379 233.756 C 87.444 233.559,87.074 231.904,86.556 230.078 C 86.038 228.252,85.597 226.934,85.576 227.148 M206.836 228.125 C 206.689 228.587,206.657 229.053,206.765 229.160 C 206.872 229.268,207.080 228.978,207.227 228.516 C 207.373 228.054,207.405 227.588,207.298 227.480 C 207.190 227.373,206.983 227.663,206.836 228.125 M317.059 229.645 C 316.915 230.367,316.816 231.331,316.840 231.787 C 316.863 232.244,317.038 231.826,317.228 230.859 C 317.419 229.893,317.517 228.929,317.448 228.717 C 317.379 228.506,317.204 228.923,317.059 229.645 M324.051 230.301 C 323.908 230.874,323.865 231.418,323.958 231.510 C 324.050 231.602,324.242 231.209,324.386 230.636 C 324.530 230.064,324.572 229.520,324.480 229.428 C 324.388 229.336,324.195 229.729,324.051 230.301 M316.211 234.375 C 316.061 235.263,316.020 236.072,316.120 236.172 C 316.220 236.272,316.419 235.622,316.563 234.727 C 316.706 233.831,316.747 233.023,316.653 232.929 C 316.560 232.836,316.361 233.487,316.211 234.375 M321.320 238.703 C 320.292 241.721,319.530 244.270,319.626 244.365 C 319.722 244.461,320.632 242.061,321.649 239.032 C 322.666 236.002,323.428 233.454,323.343 233.369 C 323.258 233.284,322.347 235.684,321.320 238.703 M87.512 234.766 C 87.512 235.088,87.682 235.615,87.891 235.938 C 88.227 236.458,88.269 236.458,88.269 235.938 C 88.269 235.615,88.099 235.088,87.891 234.766 C 87.554 234.245,87.512 234.245,87.512 234.766 M88.491 237.695 C 88.799 239.233,90.695 244.592,90.869 244.417 C 90.944 244.343,90.386 242.536,89.631 240.403 C 88.875 238.269,88.362 237.051,88.491 237.695 M315.090 239.700 C 314.729 241.344,314.511 242.766,314.605 242.860 C 314.699 242.955,315.075 241.690,315.440 240.049 C 315.805 238.409,316.023 236.987,315.925 236.889 C 315.827 236.791,315.452 238.056,315.090 239.700 M184.956 238.717 C 184.043 239.161,182.422 241.393,182.422 242.206 C 182.422 242.511,182.747 242.149,183.145 241.400 C 183.543 240.652,184.448 239.644,185.156 239.160 C 186.472 238.262,186.367 238.030,184.956 238.717 M191.992 238.929 C 192.637 239.268,193.669 240.008,194.287 240.574 C 195.243 241.448,195.333 241.475,194.895 240.752 C 194.400 239.936,191.856 238.265,191.158 238.297 C 190.972 238.305,191.348 238.590,191.992 238.929 M197.499 244.909 C 198.679 246.621,199.805 248.121,200.001 248.243 C 200.198 248.365,199.356 246.968,198.129 245.139 C 196.902 243.310,195.776 241.810,195.627 241.805 C 195.478 241.801,196.320 243.197,197.499 244.909 M182.070 244.368 C 182.092 245.210,182.253 246.338,182.429 246.875 C 182.628 247.482,182.667 246.964,182.531 245.508 C 182.279 242.794,182.013 242.138,182.070 244.368 M313.501 246.118 C 313.132 247.432,312.903 248.580,312.992 248.669 C 313.080 248.757,313.452 247.752,313.818 246.436 C 314.184 245.119,314.414 243.971,314.328 243.885 C 314.242 243.799,313.870 244.804,313.501 246.118 M209.968 245.601 C 210.283 246.232,210.919 247.085,211.381 247.495 C 212.218 248.240,212.219 248.240,211.680 247.363 C 211.383 246.880,211.007 246.484,210.844 246.484 C 210.680 246.484,210.547 246.242,210.547 245.946 C 210.547 245.650,210.288 245.193,209.971 244.930 C 209.465 244.510,209.464 244.590,209.968 245.601 M318.754 245.801 C 318.551 246.284,317.235 249.389,315.831 252.700 C 314.426 256.011,313.344 258.787,313.426 258.868 C 313.507 258.950,313.851 258.350,314.189 257.536 C 314.527 256.721,315.534 254.385,316.428 252.344 C 318.612 247.356,319.561 244.922,319.322 244.922 C 319.213 244.922,318.957 245.317,318.754 245.801 M91.406 246.257 C 91.406 247.903,102.424 271.925,102.941 271.408 C 103.029 271.320,101.732 268.532,100.059 265.214 C 96.876 258.902,92.188 248.122,92.188 247.116 C 92.188 246.794,92.012 246.422,91.797 246.289 C 91.582 246.156,91.406 246.142,91.406 246.257 M214.034 250.404 C 215.200 251.466,216.233 252.256,216.329 252.160 C 216.426 252.064,215.918 251.495,215.201 250.895 C 214.485 250.295,213.632 249.497,213.308 249.121 C 212.983 248.745,212.536 248.445,212.316 248.455 C 212.095 248.465,212.868 249.342,214.034 250.404 M201.156 249.925 C 201.641 250.635,202.142 251.114,202.268 250.987 C 202.394 250.861,201.997 250.280,201.385 249.695 L 200.273 248.633 201.156 249.925 M312.349 250.159 C 312.219 250.676,311.998 251.423,311.858 251.819 C 311.684 252.312,311.732 252.416,312.011 252.148 C 312.436 251.740,313.089 249.219,312.769 249.219 C 312.667 249.219,312.478 249.642,312.349 250.159 M203.125 252.088 C 203.125 252.564,207.096 256.640,208.397 257.501 C 209.105 257.968,208.887 257.666,207.849 256.740 C 206.902 255.895,205.452 254.434,204.626 253.495 C 203.800 252.555,203.125 251.922,203.125 252.088 M311.161 254.129 C 311.017 254.702,310.975 255.246,311.067 255.338 C 311.159 255.430,311.352 255.037,311.496 254.464 C 311.639 253.892,311.681 253.348,311.589 253.256 C 311.497 253.164,311.304 253.557,311.161 254.129 M309.652 258.740 C 308.613 261.535,308.296 262.876,308.948 261.719 C 309.486 260.764,311.022 256.204,310.860 256.042 C 310.778 255.960,310.235 257.174,309.652 258.740 M209.766 258.725 C 209.766 258.890,211.922 260.348,213.867 261.498 L 215.039 262.191 213.970 261.271 C 212.876 260.330,209.766 258.446,209.766 258.725 M312.109 260.938 C 311.020 263.074,311.317 263.371,312.440 261.268 C 312.913 260.381,313.221 259.575,313.123 259.477 C 313.025 259.379,312.569 260.036,312.109 260.938 M190.653 262.803 C 190.895 263.496,191.252 264.163,191.448 264.283 C 191.643 264.404,191.592 264.008,191.335 263.404 C 190.645 261.783,190.143 261.340,190.653 262.803 M307.089 265.668 C 306.893 266.182,306.447 267.288,306.096 268.126 C 305.745 268.965,305.544 269.736,305.648 269.841 C 305.752 269.945,305.997 269.610,306.193 269.097 C 306.388 268.584,306.835 267.478,307.185 266.639 C 307.536 265.801,307.737 265.029,307.633 264.925 C 307.529 264.821,307.284 265.155,307.089 265.668 M309.242 266.699 C 308.116 268.537,306.630 271.537,306.941 271.345 C 307.379 271.074,309.894 266.406,309.602 266.406 C 309.502 266.406,309.340 266.538,309.242 266.699 M103.201 272.070 C 103.426 272.530,107.896 280.198,108.078 280.436 C 109.132 281.811,108.001 279.347,106.206 276.358 C 104.259 273.115,102.455 270.542,103.201 272.070 M108.602 281.100 C 108.614 281.555,110.136 283.496,110.148 283.069 C 110.152 282.888,109.805 282.293,109.375 281.747 C 108.945 281.201,108.598 280.910,108.602 281.100 M110.367 283.984 C 113.286 289.323,130.917 312.182,131.594 311.505 C 131.726 311.373,131.569 311.059,131.244 310.808 C 129.499 309.461,117.829 294.420,113.311 287.695 C 111.329 284.745,109.571 282.529,110.367 283.984 M194.311 293.848 L 193.164 295.117 194.434 293.970 C 195.617 292.900,195.883 292.578,195.581 292.578 C 195.514 292.578,194.942 293.149,194.311 293.848 M288.843 306.348 L 287.695 307.617 288.965 306.470 C 289.663 305.839,290.234 305.268,290.234 305.200 C 290.234 304.899,289.912 305.164,288.843 306.348 M286.035 309.356 C 285.337 310.197,284.766 310.991,284.766 311.120 C 284.766 311.249,285.337 310.690,286.034 309.877 C 286.732 309.064,287.479 308.269,287.695 308.111 C 287.955 307.921,287.955 307.825,287.695 307.826 C 287.480 307.826,286.733 308.515,286.035 309.356 M159.055 310.005 C 157.697 310.774,156.660 311.478,156.750 311.568 C 156.896 311.714,161.113 309.330,161.639 308.804 C 162.091 308.352,161.425 308.661,159.055 310.005 M132.279 312.546 C 132.719 313.369,141.104 322.308,141.275 322.136 C 141.420 321.992,139.207 319.520,134.818 314.926 C 133.236 313.269,132.093 312.198,132.279 312.546 M154.488 314.459 C 154.353 314.678,154.081 314.757,153.884 314.635 C 153.686 314.512,153.629 314.685,153.757 315.019 C 154.060 315.807,154.184 315.784,154.688 314.844 C 155.110 314.053,154.941 313.727,154.488 314.459 M280.469 315.234 C 280.010 315.879,279.722 316.406,279.830 316.406 C 279.937 316.406,280.400 315.879,280.859 315.234 C 281.318 314.590,281.606 314.063,281.499 314.063 C 281.391 314.063,280.928 314.590,280.469 315.234 M153.733 318.946 C 154.057 320.296,154.683 321.619,154.897 321.405 C 155.087 321.215,154.141 318.464,153.752 318.075 C 153.587 317.910,153.579 318.302,153.733 318.946 M193.359 318.598 C 195.514 318.867,203.086 318.940,202.445 318.686 C 202.067 318.537,199.648 318.428,197.070 318.445 C 194.492 318.462,192.822 318.531,193.359 318.598 M189.844 319.086 C 189.844 319.272,190.283 319.339,190.820 319.236 C 191.357 319.134,191.797 318.982,191.797 318.900 C 191.797 318.817,191.357 318.750,190.820 318.750 C 190.283 318.750,189.844 318.901,189.844 319.086 M186.965 319.450 C 186.859 319.620,187.376 319.688,188.113 319.602 C 188.850 319.516,189.453 319.377,189.453 319.293 C 189.453 318.999,187.154 319.144,186.965 319.450 M205.058 320.296 C 206.813 321.461,208.588 323.861,208.592 325.075 C 208.593 325.438,208.750 325.832,208.942 325.950 C 209.134 326.069,209.102 325.424,208.872 324.518 C 208.404 322.673,205.216 319.139,204.023 319.142 C 203.579 319.143,203.961 319.569,205.058 320.296 M175.879 321.587 C 174.966 321.806,174.219 322.118,174.219 322.280 C 174.219 322.608,177.130 321.829,177.578 321.380 C 177.736 321.223,177.791 321.115,177.702 321.141 C 177.612 321.166,176.792 321.367,175.879 321.587 M273.271 322.619 L 272.127 324.023 273.446 322.766 C 274.171 322.075,274.686 321.443,274.589 321.362 C 274.493 321.281,273.899 321.847,273.271 322.619 M143.540 324.529 C 144.606 325.647,145.544 326.563,145.623 326.563 C 146.013 326.563,145.330 325.790,143.555 324.221 L 141.602 322.496 143.540 324.529 M243.210 324.219 C 242.642 325.078,242.322 325.781,242.501 325.781 C 242.679 325.781,243.220 325.078,243.703 324.219 C 244.186 323.359,244.505 322.656,244.413 322.656 C 244.320 322.656,243.779 323.359,243.210 324.219 M160.259 324.108 C 160.853 324.198,161.732 324.196,162.212 324.103 C 162.693 324.010,162.207 323.937,161.133 323.940 C 160.059 323.943,159.666 324.019,160.259 324.108 M269.689 325.838 C 268.950 326.670,268.951 326.673,269.802 326.227 C 270.752 325.729,271.337 325.000,270.787 325.000 C 270.592 325.000,270.099 325.377,269.689 325.838 M146.094 326.856 C 146.094 327.312,149.551 330.657,149.783 330.426 C 149.887 330.321,149.100 329.402,148.033 328.383 C 146.966 327.364,146.094 326.677,146.094 326.856 M152.414 333.165 C 153.557 334.219,154.580 334.993,154.688 334.886 C 154.911 334.663,151.142 331.270,150.656 331.258 C 150.480 331.254,151.271 332.112,152.414 333.165 M235.127 333.074 L 234.180 334.117 235.242 333.367 C 235.826 332.955,236.309 332.485,236.316 332.324 C 236.336 331.843,236.122 331.978,235.127 333.074 M156.414 336.816 C 157.235 337.837,157.985 338.672,158.081 338.672 C 158.391 338.672,156.755 336.549,155.823 335.742 C 155.327 335.313,155.593 335.796,156.414 336.816 M254.688 338.086 C 254.016 338.470,253.909 338.649,254.347 338.658 C 254.696 338.666,255.201 338.408,255.469 338.086 C 256.063 337.369,255.941 337.369,254.688 338.086 M225.000 340.234 C 224.463 340.655,224.199 340.998,224.414 340.998 C 224.629 340.998,225.244 340.655,225.781 340.234 C 226.318 339.814,226.582 339.470,226.367 339.470 C 226.152 339.470,225.537 339.814,225.000 340.234 M219.481 343.848 C 219.156 344.116,218.585 344.863,218.211 345.508 L 217.532 346.680 218.332 345.703 C 218.772 345.166,219.428 344.419,219.791 344.043 C 220.551 343.254,220.351 343.128,219.481 343.848 M199.589 345.920 C 199.073 346.469,198.915 346.817,199.236 346.694 C 199.745 346.499,201.009 344.922,200.657 344.922 C 200.586 344.922,200.105 345.371,199.589 345.920 M186.862 351.647 C 186.758 351.815,187.474 351.953,188.454 351.953 C 189.433 351.953,190.234 351.884,190.234 351.799 C 190.234 351.492,187.046 351.349,186.862 351.647 " stroke="none" fill="#66b2c6" fill-rule="evenodd"></path></g></svg>